<?xml version="1.0" encoding="utf-8"?>
<!-- Generator: Adobe Illustrator 19.0.0, SVG Export Plug-In . SVG Version: 6.00 Build 0)  -->
<svg version="1.1" id="Camada_1" xmlns="http://www.w3.org/2000/svg" xmlns:xlink="http://www.w3.org/1999/xlink" x="0px" y="0px"
	 viewBox="0 0 124.1 38.3" style="enable-background:new 0 0 124.1 38.3;" xml:space="preserve">
<style type="text/css">
	.st0{fill:#414F5D;}
</style>
<g id="XMLID_1_">
	<g id="XMLID_252_">
		<path id="XMLID_276_" class="st0" d="M4.1,15.8l-2.6,2.6L0,16.8v-12l2-2.1l2.1,2.1V15.8z M0,33.4l2,2.1l2.1-2.1V22.5l-2.6-2.6
			L0,21.5V33.4z M20.1,2.1l-2,2.1H4.8l-2-2.1l2-2h13.3L20.1,2.1z M4.8,38.3l-2-2l2-2.1h13.3l2,2.1l-2,2H4.8z M22.9,16.8l-1.5,1.5
			l-2.6-2.6V4.9l2-2.1l2.1,2.1V16.8z M22.9,33.4l-2.1,2.1l-2-2.1V22.5l2.6-2.6l1.5,1.6V33.4z"/>
		<path id="XMLID_270_" class="st0" d="M26,16.8V0l4.1,4.1v11.7l-2.6,2.6L26,16.8z M30.1,22.5v11.7L26,38.3V21.5l1.5-1.6L30.1,22.5z
			 M31.1,7l0-2.9h2.9l9.9,9.9l0,2.9l-2.8,0L31.1,7z M44.8,15.8V4.1L48.9,0v16.8l-1.5,1.5L44.8,15.8z M48.9,21.5v16.8l-4.1-4.1V22.5
			l2.6-2.6L48.9,21.5z"/>
		<path id="XMLID_263_" class="st0" d="M62.9,16.8V0.8L67,4.9v10.9l-2.6,2.6L62.9,16.8z M67,22.5v11.7l-4.1,4.1V21.5l1.5-1.6
			L67,22.5z M85,0.1l-4,4.1H67.7l-4-4.1H85z M81.4,17.1l2.1,2l-2.1,2H67.2l-2-2l2-2H81.4z M81.7,15.8V4.9l4.1-4.1v16.1l-1.5,1.5
			L81.7,15.8z M85.8,21.5v16.8l-4.1-4.1V22.5l2.6-2.6L85.8,21.5z"/>
		<path id="XMLID_260_" class="st0" d="M95.5,16.8L94,18.4l-2.6-2.6V2.1l2-2l2.1,2V16.8z M95.5,36.3l-2.1,2l-2-2V22.5l2.6-2.6
			l1.5,1.6V36.3z"/>
		<path id="XMLID_253_" class="st0" d="M105.3,15.8l-2.6,2.6l-1.5-1.5V0.8l4.1,4.1V15.8z M105.3,34.2l-4.1,4.1V21.5l1.5-1.6l2.6,2.6
			V34.2z M121.3,2.1l-2,2.1H106l-4-4.1h17.3L121.3,2.1z M119.7,17.1l2.1,2l-2.1,2h-14.3l-2-2l2-2H119.7z M108,25.1l0-2.9h2.9
			l13.1,13.1v2.9l-2.9,0L108,25.1z M124.1,16.8l-1.5,1.5l-2.6-2.6V4.9l2-2.1l2.1,2.1V16.8z"/>
	</g>
</g>
</svg>
