<?xml version="1.0" encoding="utf-8"?>
<!-- Generator: Adobe Illustrator 19.0.0, SVG Export Plug-In . SVG Version: 6.00 Build 0)  -->
<svg version="1.1" id="Camada_1" xmlns="http://www.w3.org/2000/svg" xmlns:xlink="http://www.w3.org/1999/xlink" x="0px" y="0px"
	 viewBox="0 0 187 46" style="enable-background:new 0 0 187 46;" xml:space="preserve">
<style type="text/css">
	.st0{fill:#414F5D;}
	.st1{opacity:0.3;}
</style>
<g id="XMLID_130_">
	<path id="XMLID_131_" class="st0" d="M59.8,20.2V9.2l4.1-4.1v16.1l-1.5,1.5L59.8,20.2z M63.9,25.8v16l-4.1-4.1V26.8l2.6-2.6
		L63.9,25.8z"/>
	<path id="XMLID_134_" class="st0" d="M73.6,20.2L71,22.7l-1.5-1.5V5.1l4.1,4.1V20.2z M73.6,37.8l-4.1,4.1v-16l1.5-1.6l2.6,2.6V37.8
		z M91.6,4.4l-4,4.1H74.3l-4-4.1H91.6z M91.6,42.6H70.3l4-4.1h13.3L91.6,42.6z M92.4,21.2l-1.5,1.5l-2.6-2.6V9.2l4.1-4.1V21.2z
		 M92.4,41.9l-4.1-4.1V26.8l2.6-2.6l1.5,1.6V41.9z"/>
	<path id="XMLID_141_" class="st0" d="M96.8,14.9v-4.1h4.1v4.1H96.8z M96.8,42.6v-4.1h4.1v4.1H96.8z"/>
	<path id="XMLID_144_" class="st0" d="M127.4,4.4l-4,4.1h-13.3l-4-4.1H127.4z M127.4,42.6h-21.4l4-4.1h13.3L127.4,42.6z M123.9,21.5
		l2.1,2l-2.1,2h-14.3l-2-2l2-2H123.9z M124.1,20.2V9.2l4.1-4.1v16.1l-1.5,1.5L124.1,20.2z M128.2,25.8v16l-4.1-4.1V26.8l2.6-2.6
		L128.2,25.8z"/>
	<path id="XMLID_150_" class="st0" d="M131.3,21.2V5.1l4.1,4.1v10.9l-2.6,2.6L131.3,21.2z M135.4,26.8v10.9l-4.1,4.1v-16l1.5-1.6
		L135.4,26.8z M153.5,4.4l-4,4.1h-13.3l-4-4.1H153.5z M153.5,42.6h-21.4l4-4.1h13.3L153.5,42.6z M149.9,21.5l2.1,2l-2.1,2h-14.3
		l-2-2l2-2H149.9z M154.2,25.8v16l-4.1-4.1V26.8l2.6-2.6L154.2,25.8z"/>
</g>
<g id="XMLID_116_">
	<path id="XMLID_117_" class="st0" d="M160.8,33.1v-7.2l1.8,1.8v4.9l-1.1,1.1L160.8,33.1z M170.6,25.6l-1.8,1.8h-5.9l-1.8-1.8H170.6
		z M170.6,42.6h-9.5l1.8-1.8h5.9L170.6,42.6z M169,33.2l0.9,0.9L169,35h-6.4l-0.9-0.9l0.9-0.9H169z M171,35.1v7.1l-1.8-1.8v-4.9
		l1.2-1.1L171,35.1z"/>
	<path id="XMLID_123_" class="st0" d="M172.4,33.1v-7.2l1.8,1.8v4.9l-1.1,1.1L172.4,33.1z M182.2,25.6l-1.8,1.8h-5.9l-1.8-1.8H182.2
		z M182.2,42.6h-9.5l1.8-1.8h5.9L182.2,42.6z M180.7,33.2l0.9,0.9l-0.9,0.9h-6.4l-0.9-0.9l0.9-0.9H180.7z M180.8,32.6v-4.9l1.8-1.8
		v7.2l-0.7,0.7L180.8,32.6z M182.6,35.1v7.1l-1.8-1.8v-4.9l1.2-1.1L182.6,35.1z"/>
</g>
<g id="XMLID_107_">
	<g id="XMLID_245_">
		<path id="XMLID_264_" class="st0" d="M3,5.7v-3h1c0.2,0,0.4,0,0.5,0c0.2,0,0.3,0.1,0.4,0.2c0.2,0.1,0.3,0.3,0.4,0.5
			c0.1,0.2,0.1,0.4,0.1,0.7c0,0.2,0,0.4-0.1,0.6C5.4,4.9,5.3,5.1,5.2,5.2C5.1,5.3,5.1,5.4,5,5.5C4.9,5.5,4.7,5.6,4.6,5.6
			c-0.1,0-0.3,0.1-0.5,0.1H3z M3.4,5.3h0.6c0.2,0,0.4,0,0.5-0.1c0.1,0,0.2-0.1,0.3-0.2C4.9,5,5,4.9,5,4.7c0.1-0.2,0.1-0.4,0.1-0.6
			c0-0.3-0.1-0.6-0.2-0.7C4.8,3.3,4.7,3.1,4.6,3.1C4.5,3,4.3,3,4.1,3H3.4V5.3z"/>
		<path id="XMLID_248_" class="st0" d="M5.7,5.7l1.2-3h0.4l1.2,3H8.1L7.7,4.8H6.5L6.2,5.7H5.7z M6.6,4.4h1L7.3,3.6
			C7.2,3.4,7.1,3.1,7.1,3c0,0.2-0.1,0.4-0.2,0.6L6.6,4.4z"/>
		<path id="XMLID_246_" class="st0" d="M9.4,5.7V4.4L8.2,2.7h0.5l0.6,0.9c0.1,0.2,0.2,0.3,0.3,0.5C9.7,3.9,9.8,3.7,10,3.5l0.6-0.9
			H11L9.8,4.4v1.3H9.4z"/>
	</g>
</g>
<g id="XMLID_101_">
	<g id="XMLID_193_">
		<path id="XMLID_196_" class="st0" d="M165.2,8h-0.8L164,7.2h-1.5L162.2,8h-0.8l1.5-3.8h0.8L165.2,8z M163.8,6.5l-0.5-1.4l-0.5,1.4
			H163.8z"/>
		<path id="XMLID_194_" class="st0" d="M165.6,8V4.2h1.2l0.7,2.6l0.7-2.6h1.2V8h-0.7V5l-0.8,3h-0.7l-0.8-3v3H165.6z"/>
	</g>
</g>
<g id="XMLID_94_" class="st1">
	<g id="XMLID_186_">
		<path id="XMLID_189_" class="st0" d="M174.2,8V4.2h1.2c0.5,0,0.8,0,0.9,0.1c0.2,0.1,0.4,0.2,0.6,0.4c0.1,0.2,0.2,0.4,0.2,0.7
			c0,0.2,0,0.4-0.1,0.6c-0.1,0.2-0.2,0.3-0.3,0.4c-0.1,0.1-0.3,0.2-0.4,0.2c-0.2,0-0.5,0.1-0.8,0.1H175V8H174.2z M175,4.8v1.1h0.4
			c0.3,0,0.5,0,0.6-0.1s0.2-0.1,0.2-0.2c0.1-0.1,0.1-0.2,0.1-0.3c0-0.1,0-0.3-0.1-0.3c-0.1-0.1-0.2-0.1-0.3-0.2c-0.1,0-0.3,0-0.6,0
			H175z"/>
		<path id="XMLID_187_" class="st0" d="M177.7,8V4.2h1.2l0.7,2.6l0.7-2.6h1.2V8h-0.7V5L180,8h-0.7l-0.8-3v3H177.7z"/>
	</g>
</g>
<g id="XMLID_77_">
	<g id="XMLID_316_">
		<path id="XMLID_329_" class="st0" d="M9.2,10.5l-0.7,0.7H3.2l-0.7-0.7l0.7-0.7h5.3L9.2,10.5z M6.6,13.8L6,14.4l-0.9-0.9v-1.1
			l0.7-0.7l0.7,0.7V13.8z M6.6,18.8l-0.7,0.7l-0.7-0.7v-3L6,14.9l0.5,0.5V18.8z"/>
		<path id="XMLID_323_" class="st0" d="M10.5,13.8v-4l1.4,1.5v2.2l-0.9,0.9L10.5,13.8z M12,15.8v2.2l-1.4,1.4v-4l0.5-0.5L12,15.8z
			 M15.1,13.9l0.7,0.7l-0.7,0.7h-3.1l-0.7-0.7l0.7-0.7H15.1z M15.2,13.5v-2.2l1.4-1.4v4l-0.5,0.6L15.2,13.5z M16.6,15.5v4l-1.4-1.4
			v-2.2l0.9-0.9L16.6,15.5z"/>
		<path id="XMLID_317_" class="st0" d="M18.3,9.8l1.4,1.4v2.2l-0.9,0.9l-0.5-0.6V9.8z M18.3,17.8l0.7,0.7l0.7-0.7v-1.9l-0.9-0.9
			l-0.5,0.5V17.8z M20,19.5l-0.7-0.7l0.7-0.7h2.7l0.7,0.7l-0.7,0.7H20z M24.4,13.8l-0.5,0.6l-0.9-0.9v-2.2l1.4-1.5V13.8z M24.4,17.8
			l-0.7,0.7l-0.7-0.7v-1.9l0.9-0.9l0.5,0.5V17.8z"/>
	</g>
</g>
<rect id="XMLID_489_" x="2.7" y="7.3" class="st0" width="22.2" height="0.6"/>
<rect id="XMLID_486_" x="171.6" y="3.3" class="st0" width="0.6" height="5.3"/>
<g id="XMLID_65_">
	<g id="XMLID_252_">
		<path id="XMLID_262_" class="st0" d="M31.3,28.4v-3h0.6l0.7,2.1c0.1,0.2,0.1,0.3,0.1,0.4c0-0.1,0.1-0.3,0.2-0.5l0.7-2.1h0.5v3
			h-0.4v-2.5l-0.9,2.5h-0.4l-0.9-2.6v2.6H31.3z"/>
		<path id="XMLID_259_" class="st0" d="M34.7,26.9c0-0.5,0.1-0.9,0.4-1.2c0.3-0.3,0.6-0.4,1-0.4c0.3,0,0.5,0.1,0.8,0.2
			s0.4,0.3,0.5,0.6s0.2,0.5,0.2,0.8c0,0.3-0.1,0.6-0.2,0.8c-0.1,0.2-0.3,0.4-0.5,0.5c-0.2,0.1-0.5,0.2-0.7,0.2
			c-0.3,0-0.5-0.1-0.8-0.2c-0.2-0.1-0.4-0.3-0.5-0.6C34.7,27.4,34.7,27.2,34.7,26.9z M35.1,26.9c0,0.4,0.1,0.6,0.3,0.9
			c0.2,0.2,0.4,0.3,0.7,0.3c0.3,0,0.5-0.1,0.7-0.3c0.2-0.2,0.3-0.5,0.3-0.9c0-0.2,0-0.5-0.1-0.6c-0.1-0.2-0.2-0.3-0.4-0.4
			c-0.2-0.1-0.3-0.2-0.5-0.2c-0.3,0-0.5,0.1-0.7,0.3S35.1,26.5,35.1,26.9z"/>
		<path id="XMLID_257_" class="st0" d="M38,28.4v-3h0.4l1.6,2.4v-2.4h0.4v3H40L38.4,26v2.4H38z"/>
		<path id="XMLID_255_" class="st0" d="M41.8,28.4v-2.7h-1v-0.4h2.4v0.4h-1v2.7H41.8z"/>
		<path id="XMLID_253_" class="st0" d="M43.7,28.4v-3h0.4v1.2h1.6v-1.2H46v3h-0.4V27h-1.6v1.4H43.7z"/>
	</g>
</g>
<g id="XMLID_51_">
	<g id="XMLID_265_">
		<path id="XMLID_272_" class="st0" d="M31,36.6v-3.7l1.4,1.4v2l-0.9,0.9L31,36.6z M32.5,38.6v2L31,41.9v-3.7l0.5-0.5L32.5,38.6z
			 M36.9,32.5L35.5,34h-2.7l-1.4-1.4H36.9z M36.9,42.2h-5.6l1.4-1.4h2.7L36.9,42.2z M35.7,36.2v-2l1.4-1.4v3.7l-0.5,0.6L35.7,36.2z
			 M37.2,38.2v3.7l-1.4-1.4v-1.9l0.9-0.9L37.2,38.2z"/>
		<path id="XMLID_266_" class="st0" d="M40.2,38.6v1.9l-1.4,1.4v-3.7l0.5-0.5L40.2,38.6z M44.6,32.5L43.2,34h-2.7l-1.4-1.4H44.6z
			 M44.6,42.2h-5.6l1.4-1.4h2.7L44.6,42.2z M43.4,36.7l0.7,0.7l-0.7,0.7h-3.1l-0.7-0.7l0.7-0.7H43.4z M43.5,36.2v-1.9l1.4-1.4v3.7
			l-0.5,0.6L43.5,36.2z"/>
	</g>
</g>
<rect id="XMLID_473_" x="30.9" y="30" class="st0" width="22.2" height="0.6"/>
<g id="XMLID_24_">
	<g id="XMLID_232_">
		<path id="XMLID_240_" class="st0" d="M3.4,28.4v-3h1c0.2,0,0.4,0,0.5,0c0.2,0,0.3,0.1,0.4,0.2c0.2,0.1,0.3,0.3,0.4,0.5
			c0.1,0.2,0.1,0.4,0.1,0.7c0,0.2,0,0.4-0.1,0.6c-0.1,0.2-0.1,0.3-0.2,0.4c-0.1,0.1-0.2,0.2-0.3,0.3c-0.1,0.1-0.2,0.1-0.4,0.2
			c-0.1,0-0.3,0.1-0.5,0.1H3.4z M3.8,28h0.6c0.2,0,0.4,0,0.5-0.1c0.1,0,0.2-0.1,0.3-0.2c0.1-0.1,0.2-0.2,0.2-0.4
			c0.1-0.2,0.1-0.4,0.1-0.6c0-0.3-0.1-0.6-0.2-0.7c-0.1-0.2-0.2-0.3-0.4-0.3c-0.1,0-0.3-0.1-0.5-0.1H3.8V28z"/>
		<path id="XMLID_237_" class="st0" d="M6.1,28.4l1.2-3h0.4l1.2,3H8.4l-0.4-0.9H6.8l-0.3,0.9H6.1z M7,27.2h1l-0.3-0.8
			c-0.1-0.3-0.2-0.5-0.2-0.6c0,0.2-0.1,0.4-0.2,0.6L7,27.2z"/>
		<path id="XMLID_235_" class="st0" d="M9.7,28.4v-2.7h-1v-0.4h2.4v0.4h-1v2.7H9.7z"/>
		<path id="XMLID_233_" class="st0" d="M11.5,28.4v-3h2.2v0.4h-1.8v0.9h1.7V27h-1.7v1h1.8v0.4H11.5z"/>
	</g>
</g>
<g id="XMLID_12_">
	<g id="XMLID_214_">
		<path id="XMLID_221_" class="st0" d="M3.8,36.2v-1.9l1.4-1.4v3.7l-0.5,0.6L3.8,36.2z M5.2,38.2v3.7l-1.4-1.4v-1.9l0.9-0.9
			L5.2,38.2z"/>
		<path id="XMLID_215_" class="st0" d="M13.3,32.5L11.9,34H9.2l-1.4-1.4H13.3z M13.3,42.2H7.8l1.4-1.4h2.7L13.3,42.2z M12.1,36.7
			l0.7,0.7l-0.7,0.7H9l-0.7-0.7L9,36.7H12.1z M12.2,36.2v-2l1.4-1.4v3.7l-0.5,0.6L12.2,36.2z M13.6,38.2v3.7l-1.4-1.4v-1.9l0.9-0.9
			L13.6,38.2z"/>
	</g>
</g>
<rect id="XMLID_96_" x="3.1" y="30" class="st0" width="22.2" height="0.6"/>
</svg>
