<?xml version="1.0" encoding="utf-8"?>
<!-- Generator: Adobe Illustrator 19.0.0, SVG Export Plug-In . SVG Version: 6.00 Build 0)  -->
<svg version="1.1" id="Camada_1" xmlns="http://www.w3.org/2000/svg" xmlns:xlink="http://www.w3.org/1999/xlink" x="0px" y="0px"
	 viewBox="0 0 337.6 52.2" style="enable-background:new 0 0 337.6 52.2;" xml:space="preserve">
<style type="text/css">
	.st0{fill:#383838;}
	.st1{fill:#FFFFFF;}
	.st2{fill:#C85A34;}
	.st3{fill:#C3463B;}
	.st4{fill:#29282A;}
	.st5{fill:#D68F35;}
	.st6{fill:#BF2C2B;}
	.st7{fill:#EBE352;}
	.st8{fill:#DFA94D;}
	.st9{fill:#585858;}
	.st10{fill:#9F9F9F;}
	.st11{fill:#F7F7F8;}
</style>
<rect id="XMLID_464_" x="0" y="0" class="st0" width="337.6" height="52.2"/>
<g id="XMLID_472_">
	<g id="XMLID_808_">
		<path id="XMLID_834_" class="st1" d="M139.9,48.1v-3h1.4c0.3,0,0.5,0,0.6,0.1c0.1,0.1,0.3,0.2,0.3,0.3c0.1,0.1,0.1,0.3,0.1,0.5
			c0,0.2-0.1,0.4-0.2,0.5c-0.1,0.1-0.4,0.2-0.6,0.3c0.1,0.1,0.2,0.1,0.2,0.2c0.1,0.1,0.2,0.2,0.3,0.4l0.5,0.8h-0.5l-0.4-0.6
			c-0.1-0.2-0.2-0.3-0.3-0.4c-0.1-0.1-0.1-0.2-0.2-0.2c-0.1,0-0.1-0.1-0.2-0.1c0,0-0.1,0-0.2,0h-0.5v1.4H139.9z M140.3,46.4h0.9
			c0.2,0,0.3,0,0.4-0.1c0.1,0,0.2-0.1,0.2-0.2s0.1-0.2,0.1-0.3c0-0.1-0.1-0.3-0.2-0.4c-0.1-0.1-0.3-0.1-0.5-0.1h-1V46.4z"/>
		<path id="XMLID_832_" class="st1" d="M142.9,48.1v-3h0.6l0.7,2.2c0.1,0.2,0.1,0.4,0.1,0.5c0-0.1,0.1-0.3,0.2-0.5l0.7-2.1h0.5v3
			h-0.4v-2.6l-0.9,2.6h-0.4l-0.9-2.6v2.6H142.9z"/>
		<path id="XMLID_830_" class="st1" d="M146.4,47.1l0.4,0c0,0.2,0.1,0.3,0.1,0.4c0.1,0.1,0.2,0.2,0.3,0.2c0.1,0.1,0.3,0.1,0.5,0.1
			c0.2,0,0.3,0,0.4-0.1s0.2-0.1,0.3-0.2c0.1-0.1,0.1-0.2,0.1-0.3c0-0.1,0-0.2-0.1-0.3c-0.1-0.1-0.1-0.1-0.3-0.2
			c-0.1,0-0.3-0.1-0.5-0.1c-0.3-0.1-0.5-0.1-0.6-0.2c-0.1-0.1-0.3-0.2-0.3-0.3c-0.1-0.1-0.1-0.2-0.1-0.4c0-0.2,0-0.3,0.1-0.4
			c0.1-0.1,0.2-0.2,0.4-0.3c0.2-0.1,0.4-0.1,0.6-0.1c0.2,0,0.4,0,0.6,0.1c0.2,0.1,0.3,0.2,0.4,0.3c0.1,0.1,0.1,0.3,0.1,0.5l-0.4,0
			c0-0.2-0.1-0.3-0.2-0.4c-0.1-0.1-0.3-0.1-0.5-0.1c-0.2,0-0.4,0-0.5,0.1c-0.1,0.1-0.2,0.2-0.2,0.3c0,0.1,0,0.2,0.1,0.3
			c0.1,0.1,0.3,0.1,0.6,0.2c0.3,0.1,0.6,0.1,0.7,0.2c0.2,0.1,0.3,0.2,0.4,0.3s0.1,0.3,0.1,0.4c0,0.2,0,0.3-0.1,0.5s-0.2,0.3-0.4,0.3
			c-0.2,0.1-0.4,0.1-0.6,0.1c-0.3,0-0.5,0-0.7-0.1c-0.2-0.1-0.3-0.2-0.4-0.4C146.4,47.5,146.4,47.3,146.4,47.1z"/>
		<path id="XMLID_828_" class="st1" d="M150.4,47.1l0.4,0c0,0.2,0.1,0.3,0.1,0.4c0.1,0.1,0.2,0.2,0.3,0.2c0.1,0.1,0.3,0.1,0.5,0.1
			c0.2,0,0.3,0,0.4-0.1s0.2-0.1,0.3-0.2c0.1-0.1,0.1-0.2,0.1-0.3c0-0.1,0-0.2-0.1-0.3c-0.1-0.1-0.1-0.1-0.3-0.2
			c-0.1,0-0.3-0.1-0.5-0.1c-0.3-0.1-0.5-0.1-0.6-0.2c-0.1-0.1-0.3-0.2-0.3-0.3c-0.1-0.1-0.1-0.2-0.1-0.4c0-0.2,0-0.3,0.1-0.4
			c0.1-0.1,0.2-0.2,0.4-0.3c0.2-0.1,0.4-0.1,0.6-0.1c0.2,0,0.4,0,0.6,0.1c0.2,0.1,0.3,0.2,0.4,0.3c0.1,0.1,0.1,0.3,0.1,0.5l-0.4,0
			c0-0.2-0.1-0.3-0.2-0.4c-0.1-0.1-0.3-0.1-0.5-0.1c-0.2,0-0.4,0-0.5,0.1c-0.1,0.1-0.2,0.2-0.2,0.3c0,0.1,0,0.2,0.1,0.3
			c0.1,0.1,0.3,0.1,0.6,0.2c0.3,0.1,0.6,0.1,0.7,0.2c0.2,0.1,0.3,0.2,0.4,0.3s0.1,0.3,0.1,0.4c0,0.2,0,0.3-0.1,0.5s-0.2,0.3-0.4,0.3
			c-0.2,0.1-0.4,0.1-0.6,0.1c-0.3,0-0.5,0-0.7-0.1c-0.2-0.1-0.3-0.2-0.4-0.4C150.4,47.5,150.4,47.3,150.4,47.1z"/>
		<path id="XMLID_826_" class="st1" d="M153.4,48.1v-3h0.4v1.3h1.6V45h0.4v3h-0.4v-1.4h-1.6v1.4H153.4z"/>
		<path id="XMLID_823_" class="st1" d="M156.3,46.6c0-0.5,0.1-0.9,0.4-1.2s0.6-0.4,1.1-0.4c0.3,0,0.5,0.1,0.8,0.2
			c0.2,0.1,0.4,0.3,0.5,0.6c0.1,0.2,0.2,0.5,0.2,0.8c0,0.3-0.1,0.6-0.2,0.8c-0.1,0.2-0.3,0.4-0.5,0.6s-0.5,0.2-0.7,0.2
			c-0.3,0-0.5-0.1-0.8-0.2c-0.2-0.1-0.4-0.3-0.5-0.6C156.4,47.1,156.3,46.9,156.3,46.6z M156.7,46.6c0,0.4,0.1,0.7,0.3,0.9
			c0.2,0.2,0.4,0.3,0.7,0.3c0.3,0,0.6-0.1,0.7-0.3c0.2-0.2,0.3-0.5,0.3-0.9c0-0.2,0-0.5-0.1-0.6c-0.1-0.2-0.2-0.3-0.4-0.4
			c-0.2-0.1-0.3-0.2-0.5-0.2c-0.3,0-0.5,0.1-0.7,0.3C156.8,45.8,156.7,46.1,156.7,46.6z"/>
		<path id="XMLID_820_" class="st1" d="M159.8,48.1v-3h1.4c0.3,0,0.5,0,0.6,0.1c0.1,0.1,0.3,0.2,0.3,0.3c0.1,0.1,0.1,0.3,0.1,0.5
			c0,0.2-0.1,0.4-0.2,0.5c-0.1,0.1-0.4,0.2-0.6,0.3c0.1,0.1,0.2,0.1,0.2,0.2c0.1,0.1,0.2,0.2,0.3,0.4l0.5,0.8h-0.5l-0.4-0.6
			c-0.1-0.2-0.2-0.3-0.3-0.4c-0.1-0.1-0.1-0.2-0.2-0.2c-0.1,0-0.1-0.1-0.2-0.1c0,0-0.1,0-0.2,0h-0.5v1.4H159.8z M160.2,46.4h0.9
			c0.2,0,0.3,0,0.4-0.1c0.1,0,0.2-0.1,0.2-0.2s0.1-0.2,0.1-0.3c0-0.1-0.1-0.3-0.2-0.4c-0.1-0.1-0.3-0.1-0.5-0.1h-1V46.4z"/>
		<path id="XMLID_818_" class="st1" d="M163.5,48.1v-2.7h-1V45h2.4v0.4h-1v2.7H163.5z"/>
		<path id="XMLID_816_" class="st1" d="M167.2,48.1v-2.7h-1V45h2.4v0.4h-1v2.7H167.2z"/>
		<path id="XMLID_814_" class="st1" d="M169,48.1v-3h2.2v0.4h-1.8v0.9h1.7v0.4h-1.7v1h1.9v0.4H169z"/>
		<path id="XMLID_811_" class="st1" d="M171.8,48.1v-3h1.4c0.3,0,0.5,0,0.6,0.1c0.1,0.1,0.3,0.2,0.3,0.3c0.1,0.1,0.1,0.3,0.1,0.5
			c0,0.2-0.1,0.4-0.2,0.5c-0.1,0.1-0.4,0.2-0.6,0.3c0.1,0.1,0.2,0.1,0.2,0.2c0.1,0.1,0.2,0.2,0.3,0.4l0.5,0.8H174l-0.4-0.6
			c-0.1-0.2-0.2-0.3-0.3-0.4c-0.1-0.1-0.1-0.2-0.2-0.2c-0.1,0-0.1-0.1-0.2-0.1c0,0-0.1,0-0.2,0h-0.5v1.4H171.8z M172.2,46.4h0.9
			c0.2,0,0.3,0,0.4-0.1c0.1,0,0.2-0.1,0.2-0.2s0.1-0.2,0.1-0.3c0-0.1-0.1-0.3-0.2-0.4c-0.1-0.1-0.3-0.1-0.5-0.1h-1V46.4z"/>
		<path id="XMLID_809_" class="st1" d="M174.9,48.1v-3h0.6l0.7,2.2c0.1,0.2,0.1,0.4,0.1,0.5c0-0.1,0.1-0.3,0.2-0.5l0.7-2.1h0.5v3
			h-0.4v-2.6l-0.9,2.6h-0.4l-0.9-2.6v2.6H174.9z"/>
	</g>
</g>
<g id="XMLID_469_">
	<g id="XMLID_338_">
		<path id="XMLID_345_" class="st1" d="M6.4,8.3v-3H7v2.5h1.5v0.5H6.4z"/>
	</g>
</g>
<g id="XMLID_368_">
	<rect id="XMLID_457_" x="152.5" y="4.5" class="st2" width="6" height="3.7"/>
	<rect id="XMLID_456_" x="138.6" y="4.5" class="st2" width="6" height="3.7"/>
	<rect id="XMLID_455_" x="145.5" y="4.5" class="st2" width="6" height="3.7"/>
	<rect id="XMLID_454_" x="159.5" y="4.5" class="st2" width="6" height="3.7"/>
	<rect id="XMLID_453_" x="166.5" y="4.5" class="st3" width="6" height="3.7"/>
	<rect id="XMLID_452_" x="222.5" y="4.5" class="st4" width="6" height="3.7"/>
	<rect id="XMLID_451_" x="117.6" y="4.5" class="st5" width="6" height="3.7"/>
	<rect id="XMLID_450_" x="124.6" y="4.5" class="st5" width="6" height="3.7"/>
	<rect id="XMLID_449_" x="201.5" y="4.5" class="st4" width="6" height="3.7"/>
	<rect id="XMLID_448_" x="215.5" y="4.5" class="st6" width="6" height="3.7"/>
	<rect id="XMLID_447_" x="208.5" y="4.5" class="st4" width="6" height="3.7"/>
	<rect id="XMLID_446_" x="110.6" y="4.5" class="st5" width="6" height="3.7"/>
	<rect id="XMLID_445_" x="173.5" y="4.5" class="st3" width="6" height="3.7"/>
	<rect id="XMLID_444_" x="194.5" y="4.5" class="st4" width="6" height="3.7"/>
	<rect id="XMLID_443_" x="180.5" y="4.5" class="st3" width="6" height="3.7"/>
	<rect id="XMLID_442_" x="187.5" y="4.5" class="st6" width="6" height="3.7"/>
	<rect id="XMLID_441_" x="131.6" y="4.5" class="st2" width="6" height="3.7"/>
	<rect id="XMLID_440_" x="33.6" y="4.5" class="st7" width="6" height="3.7"/>
	<rect id="XMLID_439_" x="26.6" y="4.5" class="st7" width="6" height="3.7"/>
	<rect id="XMLID_438_" x="47.6" y="4.5" class="st7" width="6" height="3.7"/>
	<rect id="XMLID_437_" x="40.6" y="4.5" class="st7" width="6" height="3.7"/>
	<rect id="XMLID_436_" x="12.6" y="4.5" class="st7" width="6" height="3.7"/>
	<rect id="XMLID_435_" x="19.6" y="4.5" class="st7" width="6" height="3.7"/>
	<rect id="XMLID_434_" x="82.6" y="4.5" class="st8" width="6" height="3.7"/>
	<rect id="XMLID_433_" x="89.6" y="4.5" class="st5" width="6" height="3.7"/>
	<rect id="XMLID_432_" x="96.6" y="4.5" class="st5" width="6" height="3.7"/>
	<rect id="XMLID_431_" x="103.6" y="4.5" class="st5" width="6" height="3.7"/>
	<rect id="XMLID_430_" x="54.6" y="4.5" class="st7" width="6" height="3.7"/>
	<rect id="XMLID_429_" x="61.6" y="4.5" class="st8" width="6" height="3.7"/>
	<rect id="XMLID_428_" x="75.6" y="4.5" class="st8" width="6" height="3.7"/>
	<rect id="XMLID_427_" x="68.6" y="4.5" class="st8" width="6" height="3.7"/>
	<g id="XMLID_369_">
		<rect id="XMLID_426_" x="152.5" y="10.3" class="st6" width="6" height="3.7"/>
		<rect id="XMLID_425_" x="138.6" y="10.3" class="st3" width="6" height="3.7"/>
		<rect id="XMLID_424_" x="145.5" y="10.3" class="st3" width="6" height="3.7"/>
		<rect id="XMLID_423_" x="159.5" y="10.3" class="st4" width="6" height="3.7"/>
		<rect id="XMLID_422_" x="166.5" y="10.3" class="st4" width="6" height="3.7"/>
		<rect id="XMLID_421_" x="222.5" y="10.3" class="st4" width="6" height="3.7"/>
		<rect id="XMLID_420_" x="117.6" y="10.3" class="st2" width="6" height="3.7"/>
		<rect id="XMLID_419_" x="124.6" y="10.3" class="st2" width="6" height="3.7"/>
		<rect id="XMLID_418_" x="201.5" y="10.3" class="st4" width="6" height="3.7"/>
		<rect id="XMLID_417_" x="215.5" y="10.3" class="st4" width="6" height="3.7"/>
		<rect id="XMLID_416_" x="208.5" y="10.3" class="st4" width="6" height="3.7"/>
		<rect id="XMLID_415_" x="110.6" y="10.3" class="st2" width="6" height="3.7"/>
		<rect id="XMLID_414_" x="173.5" y="10.3" class="st4" width="6" height="3.7"/>
		<rect id="XMLID_413_" x="194.5" y="10.3" class="st4" width="6" height="3.7"/>
		<rect id="XMLID_412_" x="257.8" y="4.5" class="st4" width="6" height="3.7"/>
		<rect id="XMLID_411_" x="236.8" y="4.5" class="st4" width="6" height="3.7"/>
		<rect id="XMLID_410_" x="250.8" y="4.5" class="st4" width="6" height="3.7"/>
		<rect id="XMLID_409_" x="243.8" y="4.5" class="st4" width="6" height="3.7"/>
		<rect id="XMLID_408_" x="229.8" y="4.5" class="st4" width="6" height="3.7"/>
		<rect id="XMLID_407_" x="257.8" y="10.3" class="st4" width="6" height="3.7"/>
		<rect id="XMLID_406_" x="236.8" y="10.3" class="st4" width="6" height="3.7"/>
		<rect id="XMLID_405_" x="250.8" y="10.3" class="st4" width="6" height="3.7"/>
		<rect id="XMLID_404_" x="243.8" y="10.3" class="st4" width="6" height="3.7"/>
		<rect id="XMLID_403_" x="229.8" y="10.3" class="st4" width="6" height="3.7"/>
		<rect id="XMLID_402_" x="292.7" y="4.5" class="st4" width="6" height="3.7"/>
		<rect id="XMLID_401_" x="271.7" y="4.5" class="st4" width="6" height="3.7"/>
		<rect id="XMLID_400_" x="285.7" y="4.5" class="st4" width="6" height="3.7"/>
		<rect id="XMLID_399_" x="278.7" y="4.5" class="st4" width="6" height="3.7"/>
		<rect id="XMLID_398_" x="264.7" y="4.5" class="st4" width="6" height="3.7"/>
		<rect id="XMLID_397_" x="292.7" y="10.3" class="st4" width="6" height="3.7"/>
		<rect id="XMLID_396_" x="271.7" y="10.3" class="st4" width="6" height="3.7"/>
		<rect id="XMLID_395_" x="285.7" y="10.3" class="st4" width="6" height="3.7"/>
		<rect id="XMLID_394_" x="306.7" y="4.5" class="st4" width="6" height="3.7"/>
		<rect id="XMLID_393_" x="299.7" y="4.5" class="st4" width="6" height="3.7"/>
		<rect id="XMLID_392_" x="306.7" y="10.3" class="st4" width="6" height="3.7"/>
		<rect id="XMLID_391_" x="313.7" y="4.5" class="st4" width="6" height="3.7"/>
		<rect id="XMLID_390_" x="313.7" y="10.3" class="st4" width="6" height="3.7"/>
		<rect id="XMLID_389_" x="299.7" y="10.3" class="st4" width="6" height="3.7"/>
		<rect id="XMLID_388_" x="278.7" y="10.3" class="st4" width="6" height="3.7"/>
		<rect id="XMLID_387_" x="264.7" y="10.3" class="st4" width="6" height="3.7"/>
		<rect id="XMLID_386_" x="180.5" y="10.3" class="st6" width="6" height="3.7"/>
		<rect id="XMLID_385_" x="187.5" y="10.3" class="st4" width="6" height="3.7"/>
		<rect id="XMLID_384_" x="131.6" y="10.3" class="st3" width="6" height="3.7"/>
		<rect id="XMLID_383_" x="33.6" y="10.3" class="st7" width="6" height="3.7"/>
		<rect id="XMLID_382_" x="26.6" y="10.3" class="st7" width="6" height="3.7"/>
		<rect id="XMLID_381_" x="47.6" y="10.3" class="st8" width="6" height="3.7"/>
		<rect id="XMLID_380_" x="40.6" y="10.3" class="st7" width="6" height="3.7"/>
		<rect id="XMLID_379_" x="12.6" y="10.3" class="st7" width="6" height="3.7"/>
		<rect id="XMLID_378_" x="19.6" y="10.3" class="st7" width="6" height="3.7"/>
		<rect id="XMLID_377_" x="82.6" y="10.3" class="st5" width="6" height="3.7"/>
		<rect id="XMLID_376_" x="89.6" y="10.3" class="st5" width="6" height="3.7"/>
		<rect id="XMLID_375_" x="96.6" y="10.3" class="st5" width="6" height="3.7"/>
		<rect id="XMLID_374_" x="103.6" y="10.3" class="st2" width="6" height="3.7"/>
		<rect id="XMLID_373_" x="54.6" y="10.3" class="st8" width="6" height="3.7"/>
		<rect id="XMLID_372_" x="61.6" y="10.3" class="st8" width="6" height="3.7"/>
		<rect id="XMLID_371_" x="75.6" y="10.3" class="st5" width="6" height="3.7"/>
		<rect id="XMLID_370_" x="68.6" y="10.3" class="st8" width="6" height="3.7"/>
	</g>
</g>
<polygon id="XMLID_367_" class="st9" points="12.4,2.2 12.4,3.2 323.2,3.2 323.2,15.3 12.4,15.3 12.4,16.3 324.2,16.3 324.2,2.2 "/>
<path id="XMLID_366_" class="st9" d="M12.4,24.6v1h138.9c0-0.3,0-0.7,0-1H12.4z"/>
<path id="XMLID_365_" class="st9" d="M91.4,49.2c0-0.3,0-0.7,0-1H13.2V28.4h-1v20.8"/>
<path id="XMLID_364_" class="st9" d="M217.1,25.2v1h3.5c0-0.3,0-0.7,0-1H217.1z"/>
<g id="XMLID_191_">
	<path id="XMLID_192_" class="st10" d="M12.7,21.2l0.4-0.1c0.1,0.2,0.1,0.4,0.3,0.5c0.1,0.1,0.3,0.2,0.4,0.2c0.2,0,0.4-0.1,0.5-0.2
		c0.1-0.1,0.2-0.3,0.2-0.5c0-0.2-0.1-0.4-0.2-0.5c-0.1-0.1-0.3-0.2-0.5-0.2c-0.1,0-0.2,0-0.3,0l0-0.4c0,0,0.1,0,0.1,0
		c0.2,0,0.4,0,0.5-0.1s0.2-0.2,0.2-0.5c0-0.2-0.1-0.3-0.2-0.4S14,19,13.8,19c-0.2,0-0.3,0.1-0.4,0.2s-0.2,0.3-0.2,0.5l-0.4-0.1
		c0.1-0.3,0.2-0.5,0.4-0.7c0.2-0.2,0.4-0.2,0.7-0.2c0.2,0,0.4,0,0.5,0.1c0.2,0.1,0.3,0.2,0.4,0.3c0.1,0.1,0.1,0.3,0.1,0.5
		c0,0.2,0,0.3-0.1,0.4s-0.2,0.2-0.4,0.3c0.2,0,0.4,0.2,0.5,0.3c0.1,0.2,0.2,0.3,0.2,0.6c0,0.3-0.1,0.6-0.3,0.8
		c-0.2,0.2-0.5,0.3-0.9,0.3c-0.3,0-0.6-0.1-0.8-0.3C12.8,21.8,12.7,21.5,12.7,21.2z"/>
	<path id="XMLID_194_" class="st10" d="M15.5,21.4l0.4,0c0,0.2,0.1,0.3,0.2,0.4s0.2,0.1,0.4,0.1c0.1,0,0.3,0,0.4-0.1
		c0.1-0.1,0.2-0.1,0.2-0.2c0.1-0.1,0.1-0.2,0.2-0.4s0.1-0.4,0.1-0.5c0,0,0,0,0-0.1c-0.1,0.1-0.2,0.3-0.4,0.3
		c-0.2,0.1-0.3,0.1-0.5,0.1c-0.3,0-0.5-0.1-0.8-0.3s-0.3-0.5-0.3-0.8c0-0.4,0.1-0.7,0.3-0.9c0.2-0.2,0.5-0.3,0.8-0.3
		c0.2,0,0.4,0.1,0.6,0.2c0.2,0.1,0.3,0.3,0.4,0.5c0.1,0.2,0.1,0.6,0.1,1c0,0.5,0,0.8-0.1,1.1c-0.1,0.3-0.2,0.5-0.4,0.6
		c-0.2,0.1-0.4,0.2-0.7,0.2c-0.3,0-0.5-0.1-0.7-0.2C15.7,21.9,15.6,21.6,15.5,21.4z M17.3,19.8c0-0.3-0.1-0.5-0.2-0.6
		C17,19,16.8,19,16.7,19c-0.2,0-0.4,0.1-0.5,0.2s-0.2,0.4-0.2,0.6c0,0.2,0.1,0.4,0.2,0.6c0.1,0.1,0.3,0.2,0.5,0.2
		c0.2,0,0.4-0.1,0.5-0.2C17.3,20.2,17.3,20,17.3,19.8z"/>
	<path id="XMLID_197_" class="st10" d="M21.2,21.2l0.4-0.1c0.1,0.2,0.1,0.4,0.3,0.5c0.1,0.1,0.3,0.2,0.4,0.2c0.2,0,0.4-0.1,0.5-0.2
		c0.1-0.1,0.2-0.3,0.2-0.5c0-0.2-0.1-0.4-0.2-0.5c-0.1-0.1-0.3-0.2-0.5-0.2c-0.1,0-0.2,0-0.3,0l0-0.4c0,0,0.1,0,0.1,0
		c0.2,0,0.4,0,0.5-0.1s0.2-0.2,0.2-0.5c0-0.2-0.1-0.3-0.2-0.4S22.5,19,22.3,19c-0.2,0-0.3,0.1-0.4,0.2s-0.2,0.3-0.2,0.5l-0.4-0.1
		c0.1-0.3,0.2-0.5,0.4-0.7c0.2-0.2,0.4-0.2,0.7-0.2c0.2,0,0.4,0,0.5,0.1c0.2,0.1,0.3,0.2,0.4,0.3c0.1,0.1,0.1,0.3,0.1,0.5
		c0,0.2,0,0.3-0.1,0.4s-0.2,0.2-0.4,0.3c0.2,0,0.4,0.2,0.5,0.3c0.1,0.2,0.2,0.3,0.2,0.6c0,0.3-0.1,0.6-0.3,0.8
		c-0.2,0.2-0.5,0.3-0.9,0.3c-0.3,0-0.6-0.1-0.8-0.3C21.3,21.8,21.2,21.5,21.2,21.2z"/>
	<path id="XMLID_199_" class="st10" d="M24.7,20.3c-0.2-0.1-0.3-0.2-0.4-0.3s-0.1-0.3-0.1-0.4c0-0.3,0.1-0.5,0.3-0.7
		s0.4-0.3,0.7-0.3c0.3,0,0.6,0.1,0.8,0.3c0.2,0.2,0.3,0.4,0.3,0.7c0,0.2,0,0.3-0.1,0.4c-0.1,0.1-0.2,0.2-0.4,0.3
		c0.2,0.1,0.4,0.2,0.5,0.3c0.1,0.2,0.2,0.4,0.2,0.6c0,0.3-0.1,0.6-0.3,0.8s-0.5,0.3-0.9,0.3s-0.6-0.1-0.9-0.3
		c-0.2-0.2-0.3-0.5-0.3-0.8c0-0.2,0.1-0.4,0.2-0.6C24.3,20.4,24.5,20.3,24.7,20.3z M24.4,21.2c0,0.1,0,0.2,0.1,0.4
		c0.1,0.1,0.1,0.2,0.3,0.3c0.1,0.1,0.2,0.1,0.4,0.1c0.2,0,0.4-0.1,0.5-0.2s0.2-0.3,0.2-0.5c0-0.2-0.1-0.4-0.2-0.5
		c-0.1-0.1-0.3-0.2-0.5-0.2c-0.2,0-0.4,0.1-0.5,0.2C24.5,20.8,24.4,21,24.4,21.2z M24.6,19.5c0,0.2,0.1,0.3,0.2,0.4s0.3,0.2,0.4,0.2
		c0.2,0,0.3-0.1,0.4-0.2c0.1-0.1,0.2-0.2,0.2-0.4c0-0.2-0.1-0.3-0.2-0.4C25.5,19,25.3,19,25.2,19c-0.2,0-0.3,0.1-0.4,0.2
		S24.6,19.4,24.6,19.5z"/>
	<path id="XMLID_203_" class="st10" d="M29.7,21.2l0.4-0.1c0.1,0.2,0.1,0.4,0.3,0.5c0.1,0.1,0.3,0.2,0.4,0.2c0.2,0,0.4-0.1,0.5-0.2
		c0.1-0.1,0.2-0.3,0.2-0.5c0-0.2-0.1-0.4-0.2-0.5c-0.1-0.1-0.3-0.2-0.5-0.2c-0.1,0-0.2,0-0.3,0l0-0.4c0,0,0.1,0,0.1,0
		c0.2,0,0.4,0,0.5-0.1s0.2-0.2,0.2-0.5c0-0.2-0.1-0.3-0.2-0.4S31,19,30.8,19c-0.2,0-0.3,0.1-0.4,0.2s-0.2,0.3-0.2,0.5l-0.4-0.1
		c0.1-0.3,0.2-0.5,0.4-0.7c0.2-0.2,0.4-0.2,0.7-0.2c0.2,0,0.4,0,0.5,0.1c0.2,0.1,0.3,0.2,0.4,0.3c0.1,0.1,0.1,0.3,0.1,0.5
		c0,0.2,0,0.3-0.1,0.4s-0.2,0.2-0.4,0.3c0.2,0,0.4,0.2,0.5,0.3c0.1,0.2,0.2,0.3,0.2,0.6c0,0.3-0.1,0.6-0.3,0.8
		c-0.2,0.2-0.5,0.3-0.9,0.3c-0.3,0-0.6-0.1-0.8-0.3C29.8,21.8,29.7,21.5,29.7,21.2z"/>
	<path id="XMLID_205_" class="st10" d="M32.5,19.1v-0.4h2.3V19c-0.2,0.2-0.5,0.6-0.7,1c-0.2,0.4-0.4,0.8-0.5,1.2
		c-0.1,0.3-0.1,0.6-0.2,1H33c0-0.3,0.1-0.6,0.2-1s0.3-0.8,0.5-1.2c0.2-0.4,0.4-0.7,0.6-0.9H32.5z"/>
	<path id="XMLID_207_" class="st10" d="M38.2,21.2l0.4-0.1c0.1,0.2,0.1,0.4,0.3,0.5c0.1,0.1,0.3,0.2,0.4,0.2c0.2,0,0.4-0.1,0.5-0.2
		c0.1-0.1,0.2-0.3,0.2-0.5c0-0.2-0.1-0.4-0.2-0.5c-0.1-0.1-0.3-0.2-0.5-0.2c-0.1,0-0.2,0-0.3,0l0-0.4c0,0,0.1,0,0.1,0
		c0.2,0,0.4,0,0.5-0.1s0.2-0.2,0.2-0.5c0-0.2-0.1-0.3-0.2-0.4S39.5,19,39.3,19c-0.2,0-0.3,0.1-0.4,0.2s-0.2,0.3-0.2,0.5l-0.4-0.1
		c0.1-0.3,0.2-0.5,0.4-0.7c0.2-0.2,0.4-0.2,0.7-0.2c0.2,0,0.4,0,0.5,0.1c0.2,0.1,0.3,0.2,0.4,0.3c0.1,0.1,0.1,0.3,0.1,0.5
		c0,0.2,0,0.3-0.1,0.4s-0.2,0.2-0.4,0.3c0.2,0,0.4,0.2,0.5,0.3c0.1,0.2,0.2,0.3,0.2,0.6c0,0.3-0.1,0.6-0.3,0.8
		c-0.2,0.2-0.5,0.3-0.9,0.3c-0.3,0-0.6-0.1-0.8-0.3C38.4,21.8,38.2,21.5,38.2,21.2z"/>
	<path id="XMLID_209_" class="st10" d="M43.3,19.5l-0.4,0c0-0.2-0.1-0.3-0.2-0.4C42.6,19,42.5,19,42.3,19c-0.1,0-0.3,0-0.4,0.1
		c-0.1,0.1-0.2,0.2-0.3,0.4s-0.1,0.5-0.1,0.8c0.1-0.2,0.2-0.3,0.4-0.4s0.3-0.1,0.5-0.1c0.3,0,0.5,0.1,0.7,0.3
		c0.2,0.2,0.3,0.5,0.3,0.8c0,0.2,0,0.4-0.1,0.6c-0.1,0.2-0.2,0.3-0.4,0.4s-0.4,0.2-0.6,0.2c-0.4,0-0.7-0.1-0.9-0.4
		c-0.2-0.3-0.3-0.7-0.3-1.3c0-0.7,0.1-1.2,0.4-1.5c0.2-0.3,0.5-0.4,0.9-0.4c0.3,0,0.5,0.1,0.7,0.2C43.2,19,43.3,19.2,43.3,19.5z
		 M41.5,21c0,0.2,0,0.3,0.1,0.4c0.1,0.1,0.2,0.2,0.3,0.3c0.1,0.1,0.2,0.1,0.4,0.1c0.2,0,0.3-0.1,0.5-0.2s0.2-0.4,0.2-0.6
		c0-0.2-0.1-0.4-0.2-0.6c-0.1-0.1-0.3-0.2-0.5-0.2c-0.2,0-0.4,0.1-0.5,0.2C41.6,20.6,41.5,20.8,41.5,21z"/>
	<path id="XMLID_212_" class="st10" d="M46.7,21.2l0.4-0.1c0.1,0.2,0.1,0.4,0.3,0.5c0.1,0.1,0.3,0.2,0.4,0.2c0.2,0,0.4-0.1,0.5-0.2
		c0.1-0.1,0.2-0.3,0.2-0.5c0-0.2-0.1-0.4-0.2-0.5c-0.1-0.1-0.3-0.2-0.5-0.2c-0.1,0-0.2,0-0.3,0l0-0.4c0,0,0.1,0,0.1,0
		c0.2,0,0.4,0,0.5-0.1s0.2-0.2,0.2-0.5c0-0.2-0.1-0.3-0.2-0.4S48,19,47.9,19c-0.2,0-0.3,0.1-0.4,0.2s-0.2,0.3-0.2,0.5l-0.4-0.1
		c0.1-0.3,0.2-0.5,0.4-0.7c0.2-0.2,0.4-0.2,0.7-0.2c0.2,0,0.4,0,0.5,0.1c0.2,0.1,0.3,0.2,0.4,0.3c0.1,0.1,0.1,0.3,0.1,0.5
		c0,0.2,0,0.3-0.1,0.4s-0.2,0.2-0.4,0.3c0.2,0,0.4,0.2,0.5,0.3c0.1,0.2,0.2,0.3,0.2,0.6c0,0.3-0.1,0.6-0.3,0.8
		c-0.2,0.2-0.5,0.3-0.9,0.3c-0.3,0-0.6-0.1-0.8-0.3C46.9,21.8,46.8,21.5,46.7,21.2z"/>
	<path id="XMLID_214_" class="st10" d="M49.6,21.3l0.5,0c0,0.2,0.1,0.4,0.2,0.5c0.1,0.1,0.3,0.2,0.5,0.2c0.2,0,0.4-0.1,0.5-0.2
		s0.2-0.4,0.2-0.6c0-0.3-0.1-0.4-0.2-0.6c-0.1-0.1-0.3-0.2-0.6-0.2c-0.1,0-0.3,0-0.4,0.1c-0.1,0.1-0.2,0.1-0.3,0.3l-0.4-0.1l0.3-1.8
		h1.8v0.4h-1.4l-0.2,1c0.2-0.1,0.4-0.2,0.7-0.2c0.3,0,0.6,0.1,0.8,0.3s0.3,0.5,0.3,0.8c0,0.3-0.1,0.6-0.3,0.8
		c-0.2,0.3-0.5,0.4-0.9,0.4c-0.3,0-0.6-0.1-0.8-0.3C49.7,21.8,49.6,21.6,49.6,21.3z"/>
	<path id="XMLID_216_" class="st10" d="M55.3,21.2l0.4-0.1c0.1,0.2,0.1,0.4,0.3,0.5c0.1,0.1,0.3,0.2,0.4,0.2c0.2,0,0.4-0.1,0.5-0.2
		c0.1-0.1,0.2-0.3,0.2-0.5c0-0.2-0.1-0.4-0.2-0.5c-0.1-0.1-0.3-0.2-0.5-0.2c-0.1,0-0.2,0-0.3,0l0-0.4c0,0,0.1,0,0.1,0
		c0.2,0,0.4,0,0.5-0.1s0.2-0.2,0.2-0.5c0-0.2-0.1-0.3-0.2-0.4S56.6,19,56.4,19c-0.2,0-0.3,0.1-0.4,0.2s-0.2,0.3-0.2,0.5l-0.4-0.1
		c0.1-0.3,0.2-0.5,0.4-0.7c0.2-0.2,0.4-0.2,0.7-0.2c0.2,0,0.4,0,0.5,0.1c0.2,0.1,0.3,0.2,0.4,0.3c0.1,0.1,0.1,0.3,0.1,0.5
		c0,0.2,0,0.3-0.1,0.4s-0.2,0.2-0.4,0.3c0.2,0,0.4,0.2,0.5,0.3c0.1,0.2,0.2,0.3,0.2,0.6c0,0.3-0.1,0.6-0.3,0.8
		c-0.2,0.2-0.5,0.3-0.9,0.3c-0.3,0-0.6-0.1-0.8-0.3C55.4,21.8,55.3,21.5,55.3,21.2z"/>
	<path id="XMLID_218_" class="st10" d="M59.5,22.2v-0.9h-1.6v-0.4l1.6-2.3h0.4v2.3h0.5v0.4h-0.5v0.9H59.5z M59.5,20.9v-1.6l-1.1,1.6
		H59.5z"/>
	<path id="XMLID_221_" class="st10" d="M63.8,21.2l0.4-0.1c0.1,0.2,0.1,0.4,0.3,0.5c0.1,0.1,0.3,0.2,0.4,0.2c0.2,0,0.4-0.1,0.5-0.2
		c0.1-0.1,0.2-0.3,0.2-0.5c0-0.2-0.1-0.4-0.2-0.5c-0.1-0.1-0.3-0.2-0.5-0.2c-0.1,0-0.2,0-0.3,0l0-0.4c0,0,0.1,0,0.1,0
		c0.2,0,0.4,0,0.5-0.1s0.2-0.2,0.2-0.5c0-0.2-0.1-0.3-0.2-0.4S65.1,19,64.9,19c-0.2,0-0.3,0.1-0.4,0.2s-0.2,0.3-0.2,0.5l-0.4-0.1
		c0.1-0.3,0.2-0.5,0.4-0.7c0.2-0.2,0.4-0.2,0.7-0.2c0.2,0,0.4,0,0.5,0.1c0.2,0.1,0.3,0.2,0.4,0.3c0.1,0.1,0.1,0.3,0.1,0.5
		c0,0.2,0,0.3-0.1,0.4s-0.2,0.2-0.4,0.3c0.2,0,0.4,0.2,0.5,0.3c0.1,0.2,0.2,0.3,0.2,0.6c0,0.3-0.1,0.6-0.3,0.8
		c-0.2,0.2-0.5,0.3-0.9,0.3c-0.3,0-0.6-0.1-0.8-0.3C63.9,21.8,63.8,21.5,63.8,21.2z"/>
	<path id="XMLID_223_" class="st10" d="M66.6,21.2l0.4-0.1c0.1,0.2,0.1,0.4,0.3,0.5c0.1,0.1,0.3,0.2,0.4,0.2c0.2,0,0.4-0.1,0.5-0.2
		c0.1-0.1,0.2-0.3,0.2-0.5c0-0.2-0.1-0.4-0.2-0.5c-0.1-0.1-0.3-0.2-0.5-0.2c-0.1,0-0.2,0-0.3,0l0-0.4c0,0,0.1,0,0.1,0
		c0.2,0,0.4,0,0.5-0.1s0.2-0.2,0.2-0.5c0-0.2-0.1-0.3-0.2-0.4S67.9,19,67.7,19c-0.2,0-0.3,0.1-0.4,0.2s-0.2,0.3-0.2,0.5l-0.4-0.1
		c0.1-0.3,0.2-0.5,0.4-0.7c0.2-0.2,0.4-0.2,0.7-0.2c0.2,0,0.4,0,0.5,0.1c0.2,0.1,0.3,0.2,0.4,0.3c0.1,0.1,0.1,0.3,0.1,0.5
		c0,0.2,0,0.3-0.1,0.4s-0.2,0.2-0.4,0.3c0.2,0,0.4,0.2,0.5,0.3c0.1,0.2,0.2,0.3,0.2,0.6c0,0.3-0.1,0.6-0.3,0.8
		c-0.2,0.2-0.5,0.3-0.9,0.3c-0.3,0-0.6-0.1-0.8-0.3C66.7,21.8,66.6,21.5,66.6,21.2z"/>
	<path id="XMLID_225_" class="st10" d="M72.3,21.2l0.4-0.1c0.1,0.2,0.1,0.4,0.3,0.5c0.1,0.1,0.3,0.2,0.4,0.2c0.2,0,0.4-0.1,0.5-0.2
		c0.1-0.1,0.2-0.3,0.2-0.5c0-0.2-0.1-0.4-0.2-0.5c-0.1-0.1-0.3-0.2-0.5-0.2c-0.1,0-0.2,0-0.3,0l0-0.4c0,0,0.1,0,0.1,0
		c0.2,0,0.4,0,0.5-0.1s0.2-0.2,0.2-0.5c0-0.2-0.1-0.3-0.2-0.4S73.6,19,73.4,19c-0.2,0-0.3,0.1-0.4,0.2s-0.2,0.3-0.2,0.5l-0.4-0.1
		c0.1-0.3,0.2-0.5,0.4-0.7c0.2-0.2,0.4-0.2,0.7-0.2c0.2,0,0.4,0,0.5,0.1c0.2,0.1,0.3,0.2,0.4,0.3c0.1,0.1,0.1,0.3,0.1,0.5
		c0,0.2,0,0.3-0.1,0.4s-0.2,0.2-0.4,0.3c0.2,0,0.4,0.2,0.5,0.3c0.1,0.2,0.2,0.3,0.2,0.6c0,0.3-0.1,0.6-0.3,0.8
		c-0.2,0.2-0.5,0.3-0.9,0.3c-0.3,0-0.6-0.1-0.8-0.3C72.4,21.8,72.3,21.5,72.3,21.2z"/>
	<path id="XMLID_227_" class="st10" d="M77.4,21.8v0.4h-2.4c0-0.1,0-0.2,0.1-0.3c0.1-0.2,0.2-0.3,0.3-0.5c0.1-0.2,0.3-0.3,0.6-0.5
		c0.4-0.3,0.7-0.6,0.8-0.8c0.1-0.2,0.2-0.4,0.2-0.5c0-0.2-0.1-0.3-0.2-0.4C76.7,19,76.5,19,76.3,19c-0.2,0-0.4,0.1-0.5,0.2
		s-0.2,0.3-0.2,0.5l-0.5,0c0-0.3,0.1-0.6,0.3-0.8c0.2-0.2,0.5-0.3,0.8-0.3c0.3,0,0.6,0.1,0.8,0.3s0.3,0.4,0.3,0.7
		c0,0.1,0,0.3-0.1,0.4s-0.2,0.3-0.3,0.4c-0.1,0.2-0.4,0.4-0.7,0.6c-0.3,0.2-0.4,0.4-0.5,0.5c-0.1,0.1-0.1,0.2-0.2,0.2H77.4z"/>
	<path id="XMLID_229_" class="st10" d="M80.8,21.2l0.4-0.1c0.1,0.2,0.1,0.4,0.3,0.5c0.1,0.1,0.3,0.2,0.4,0.2c0.2,0,0.4-0.1,0.5-0.2
		c0.1-0.1,0.2-0.3,0.2-0.5c0-0.2-0.1-0.4-0.2-0.5c-0.1-0.1-0.3-0.2-0.5-0.2c-0.1,0-0.2,0-0.3,0l0-0.4c0,0,0.1,0,0.1,0
		c0.2,0,0.4,0,0.5-0.1s0.2-0.2,0.2-0.5c0-0.2-0.1-0.3-0.2-0.4S82.1,19,81.9,19c-0.2,0-0.3,0.1-0.4,0.2s-0.2,0.3-0.2,0.5l-0.4-0.1
		c0.1-0.3,0.2-0.5,0.4-0.7c0.2-0.2,0.4-0.2,0.7-0.2c0.2,0,0.4,0,0.5,0.1c0.2,0.1,0.3,0.2,0.4,0.3c0.1,0.1,0.1,0.3,0.1,0.5
		c0,0.2,0,0.3-0.1,0.4s-0.2,0.2-0.4,0.3c0.2,0,0.4,0.2,0.5,0.3c0.1,0.2,0.2,0.3,0.2,0.6c0,0.3-0.1,0.6-0.3,0.8
		c-0.2,0.2-0.5,0.3-0.9,0.3c-0.3,0-0.6-0.1-0.8-0.3C81,21.8,80.8,21.5,80.8,21.2z"/>
	<path id="XMLID_231_" class="st10" d="M85.3,22.2h-0.4v-2.8c-0.1,0.1-0.2,0.2-0.4,0.3c-0.2,0.1-0.3,0.2-0.5,0.2v-0.4
		c0.2-0.1,0.5-0.3,0.6-0.4s0.3-0.3,0.4-0.5h0.3V22.2z"/>
	<path id="XMLID_233_" class="st10" d="M89.3,21.2l0.4-0.1c0.1,0.2,0.1,0.4,0.3,0.5c0.1,0.1,0.3,0.2,0.4,0.2c0.2,0,0.4-0.1,0.5-0.2
		c0.1-0.1,0.2-0.3,0.2-0.5c0-0.2-0.1-0.4-0.2-0.5c-0.1-0.1-0.3-0.2-0.5-0.2c-0.1,0-0.2,0-0.3,0l0-0.4c0,0,0.1,0,0.1,0
		c0.2,0,0.4,0,0.5-0.1s0.2-0.2,0.2-0.5c0-0.2-0.1-0.3-0.2-0.4S90.6,19,90.5,19c-0.2,0-0.3,0.1-0.4,0.2s-0.2,0.3-0.2,0.5l-0.4-0.1
		c0.1-0.3,0.2-0.5,0.4-0.7c0.2-0.2,0.4-0.2,0.7-0.2c0.2,0,0.4,0,0.5,0.1c0.2,0.1,0.3,0.2,0.4,0.3c0.1,0.1,0.1,0.3,0.1,0.5
		c0,0.2,0,0.3-0.1,0.4s-0.2,0.2-0.4,0.3c0.2,0,0.4,0.2,0.5,0.3c0.1,0.2,0.2,0.3,0.2,0.6c0,0.3-0.1,0.6-0.3,0.8
		c-0.2,0.2-0.5,0.3-0.9,0.3c-0.3,0-0.6-0.1-0.8-0.3C89.5,21.8,89.4,21.5,89.3,21.2z"/>
	<path id="XMLID_235_" class="st10" d="M92.2,20.4c0-0.4,0-0.8,0.1-1c0.1-0.3,0.2-0.5,0.4-0.6c0.2-0.1,0.4-0.2,0.6-0.2
		c0.2,0,0.4,0,0.5,0.1c0.1,0.1,0.3,0.2,0.4,0.3c0.1,0.1,0.2,0.3,0.2,0.5c0.1,0.2,0.1,0.5,0.1,0.8c0,0.4,0,0.8-0.1,1
		c-0.1,0.3-0.2,0.5-0.4,0.6c-0.2,0.1-0.4,0.2-0.7,0.2c-0.3,0-0.6-0.1-0.8-0.4C92.3,21.6,92.2,21.1,92.2,20.4z M92.6,20.4
		c0,0.6,0.1,1,0.2,1.2c0.1,0.2,0.3,0.3,0.5,0.3s0.4-0.1,0.5-0.3C94,21.4,94,21,94,20.4c0-0.6-0.1-1-0.2-1.2
		c-0.1-0.2-0.3-0.3-0.5-0.3c-0.2,0-0.4,0.1-0.5,0.3C92.7,19.4,92.6,19.8,92.6,20.4z"/>
	<path id="XMLID_238_" class="st10" d="M100.2,21.8v0.4h-2.4c0-0.1,0-0.2,0.1-0.3c0.1-0.2,0.2-0.3,0.3-0.5c0.1-0.2,0.3-0.3,0.6-0.5
		c0.4-0.3,0.7-0.6,0.8-0.8c0.1-0.2,0.2-0.4,0.2-0.5c0-0.2-0.1-0.3-0.2-0.4C99.4,19,99.2,19,99,19c-0.2,0-0.4,0.1-0.5,0.2
		s-0.2,0.3-0.2,0.5l-0.5,0c0-0.3,0.1-0.6,0.3-0.8c0.2-0.2,0.5-0.3,0.8-0.3c0.3,0,0.6,0.1,0.8,0.3s0.3,0.4,0.3,0.7
		c0,0.1,0,0.3-0.1,0.4s-0.2,0.3-0.3,0.4c-0.1,0.2-0.4,0.4-0.7,0.6c-0.3,0.2-0.4,0.4-0.5,0.5c-0.1,0.1-0.1,0.2-0.2,0.2H100.2z"/>
	<path id="XMLID_240_" class="st10" d="M100.7,21.4l0.4,0c0,0.2,0.1,0.3,0.2,0.4s0.2,0.1,0.4,0.1c0.1,0,0.3,0,0.4-0.1
		c0.1-0.1,0.2-0.1,0.2-0.2c0.1-0.1,0.1-0.2,0.2-0.4s0.1-0.4,0.1-0.5c0,0,0,0,0-0.1c-0.1,0.1-0.2,0.3-0.4,0.3
		c-0.2,0.1-0.3,0.1-0.5,0.1c-0.3,0-0.5-0.1-0.8-0.3s-0.3-0.5-0.3-0.8c0-0.4,0.1-0.7,0.3-0.9c0.2-0.2,0.5-0.3,0.8-0.3
		c0.2,0,0.4,0.1,0.6,0.2c0.2,0.1,0.3,0.3,0.4,0.5c0.1,0.2,0.1,0.6,0.1,1c0,0.5,0,0.8-0.1,1.1c-0.1,0.3-0.2,0.5-0.4,0.6
		c-0.2,0.1-0.4,0.2-0.7,0.2c-0.3,0-0.5-0.1-0.7-0.2C100.9,21.9,100.8,21.6,100.7,21.4z M102.5,19.8c0-0.3-0.1-0.5-0.2-0.6
		c-0.1-0.1-0.3-0.2-0.5-0.2c-0.2,0-0.4,0.1-0.5,0.2s-0.2,0.4-0.2,0.6c0,0.2,0.1,0.4,0.2,0.6c0.1,0.1,0.3,0.2,0.5,0.2
		c0.2,0,0.4-0.1,0.5-0.2C102.5,20.2,102.5,20,102.5,19.8z"/>
	<path id="XMLID_243_" class="st10" d="M108.7,21.8v0.4h-2.4c0-0.1,0-0.2,0.1-0.3c0.1-0.2,0.2-0.3,0.3-0.5c0.1-0.2,0.3-0.3,0.6-0.5
		c0.4-0.3,0.7-0.6,0.8-0.8c0.1-0.2,0.2-0.4,0.2-0.5c0-0.2-0.1-0.3-0.2-0.4c-0.1-0.1-0.3-0.2-0.5-0.2c-0.2,0-0.4,0.1-0.5,0.2
		s-0.2,0.3-0.2,0.5l-0.5,0c0-0.3,0.1-0.6,0.3-0.8c0.2-0.2,0.5-0.3,0.8-0.3c0.3,0,0.6,0.1,0.8,0.3s0.3,0.4,0.3,0.7
		c0,0.1,0,0.3-0.1,0.4s-0.2,0.3-0.3,0.4c-0.1,0.2-0.4,0.4-0.7,0.6c-0.3,0.2-0.4,0.4-0.5,0.5c-0.1,0.1-0.1,0.2-0.2,0.2H108.7z"/>
	<path id="XMLID_245_" class="st10" d="M109.9,20.3c-0.2-0.1-0.3-0.2-0.4-0.3s-0.1-0.3-0.1-0.4c0-0.3,0.1-0.5,0.3-0.7
		s0.4-0.3,0.7-0.3c0.3,0,0.6,0.1,0.8,0.3c0.2,0.2,0.3,0.4,0.3,0.7c0,0.2,0,0.3-0.1,0.4c-0.1,0.1-0.2,0.2-0.4,0.3
		c0.2,0.1,0.4,0.2,0.5,0.3c0.1,0.2,0.2,0.4,0.2,0.6c0,0.3-0.1,0.6-0.3,0.8s-0.5,0.3-0.9,0.3s-0.6-0.1-0.9-0.3
		c-0.2-0.2-0.3-0.5-0.3-0.8c0-0.2,0.1-0.4,0.2-0.6C109.5,20.4,109.7,20.3,109.9,20.3z M109.6,21.2c0,0.1,0,0.2,0.1,0.4
		c0.1,0.1,0.1,0.2,0.3,0.3c0.1,0.1,0.2,0.1,0.4,0.1c0.2,0,0.4-0.1,0.5-0.2s0.2-0.3,0.2-0.5c0-0.2-0.1-0.4-0.2-0.5
		c-0.1-0.1-0.3-0.2-0.5-0.2c-0.2,0-0.4,0.1-0.5,0.2C109.7,20.8,109.6,21,109.6,21.2z M109.8,19.5c0,0.2,0.1,0.3,0.2,0.4
		s0.3,0.2,0.4,0.2c0.2,0,0.3-0.1,0.4-0.2c0.1-0.1,0.2-0.2,0.2-0.4c0-0.2-0.1-0.3-0.2-0.4c-0.1-0.1-0.3-0.2-0.4-0.2
		c-0.2,0-0.3,0.1-0.4,0.2S109.8,19.4,109.8,19.5z"/>
	<path id="XMLID_249_" class="st10" d="M117.2,21.8v0.4h-2.4c0-0.1,0-0.2,0.1-0.3c0.1-0.2,0.2-0.3,0.3-0.5c0.1-0.2,0.3-0.3,0.6-0.5
		c0.4-0.3,0.7-0.6,0.8-0.8c0.1-0.2,0.2-0.4,0.2-0.5c0-0.2-0.1-0.3-0.2-0.4c-0.1-0.1-0.3-0.2-0.5-0.2c-0.2,0-0.4,0.1-0.5,0.2
		s-0.2,0.3-0.2,0.5l-0.5,0c0-0.3,0.1-0.6,0.3-0.8c0.2-0.2,0.5-0.3,0.8-0.3c0.3,0,0.6,0.1,0.8,0.3s0.3,0.4,0.3,0.7
		c0,0.1,0,0.3-0.1,0.4s-0.2,0.3-0.3,0.4c-0.1,0.2-0.4,0.4-0.7,0.6c-0.3,0.2-0.4,0.4-0.5,0.5c-0.1,0.1-0.1,0.2-0.2,0.2H117.2z"/>
	<path id="XMLID_251_" class="st10" d="M117.7,19.1v-0.4h2.3V19c-0.2,0.2-0.5,0.6-0.7,1c-0.2,0.4-0.4,0.8-0.5,1.2
		c-0.1,0.3-0.1,0.6-0.2,1h-0.5c0-0.3,0.1-0.6,0.2-1s0.3-0.8,0.5-1.2c0.2-0.4,0.4-0.7,0.6-0.9H117.7z"/>
	<path id="XMLID_253_" class="st10" d="M125.7,21.8v0.4h-2.4c0-0.1,0-0.2,0.1-0.3c0.1-0.2,0.2-0.3,0.3-0.5c0.1-0.2,0.3-0.3,0.6-0.5
		c0.4-0.3,0.7-0.6,0.8-0.8c0.1-0.2,0.2-0.4,0.2-0.5c0-0.2-0.1-0.3-0.2-0.4c-0.1-0.1-0.3-0.2-0.5-0.2c-0.2,0-0.4,0.1-0.5,0.2
		s-0.2,0.3-0.2,0.5l-0.5,0c0-0.3,0.1-0.6,0.3-0.8c0.2-0.2,0.5-0.3,0.8-0.3c0.3,0,0.6,0.1,0.8,0.3s0.3,0.4,0.3,0.7
		c0,0.1,0,0.3-0.1,0.4s-0.2,0.3-0.3,0.4c-0.1,0.2-0.4,0.4-0.7,0.6c-0.3,0.2-0.4,0.4-0.5,0.5c-0.1,0.1-0.1,0.2-0.2,0.2H125.7z"/>
	<path id="XMLID_255_" class="st10" d="M128.5,19.5l-0.4,0c0-0.2-0.1-0.3-0.2-0.4c-0.1-0.1-0.3-0.2-0.4-0.2c-0.1,0-0.3,0-0.4,0.1
		c-0.1,0.1-0.2,0.2-0.3,0.4s-0.1,0.5-0.1,0.8c0.1-0.2,0.2-0.3,0.4-0.4s0.3-0.1,0.5-0.1c0.3,0,0.5,0.1,0.7,0.3
		c0.2,0.2,0.3,0.5,0.3,0.8c0,0.2,0,0.4-0.1,0.6c-0.1,0.2-0.2,0.3-0.4,0.4s-0.4,0.2-0.6,0.2c-0.4,0-0.7-0.1-0.9-0.4
		c-0.2-0.3-0.3-0.7-0.3-1.3c0-0.7,0.1-1.2,0.4-1.5c0.2-0.3,0.5-0.4,0.9-0.4c0.3,0,0.5,0.1,0.7,0.2C128.4,19,128.5,19.2,128.5,19.5z
		 M126.7,21c0,0.2,0,0.3,0.1,0.4c0.1,0.1,0.2,0.2,0.3,0.3c0.1,0.1,0.2,0.1,0.4,0.1c0.2,0,0.3-0.1,0.5-0.2s0.2-0.4,0.2-0.6
		c0-0.2-0.1-0.4-0.2-0.6c-0.1-0.1-0.3-0.2-0.5-0.2c-0.2,0-0.4,0.1-0.5,0.2C126.8,20.6,126.7,20.8,126.7,21z"/>
	<path id="XMLID_258_" class="st10" d="M134.2,21.8v0.4h-2.4c0-0.1,0-0.2,0.1-0.3c0.1-0.2,0.2-0.3,0.3-0.5c0.1-0.2,0.3-0.3,0.6-0.5
		c0.4-0.3,0.7-0.6,0.8-0.8c0.1-0.2,0.2-0.4,0.2-0.5c0-0.2-0.1-0.3-0.2-0.4c-0.1-0.1-0.3-0.2-0.5-0.2c-0.2,0-0.4,0.1-0.5,0.2
		s-0.2,0.3-0.2,0.5l-0.5,0c0-0.3,0.1-0.6,0.3-0.8c0.2-0.2,0.5-0.3,0.8-0.3c0.3,0,0.6,0.1,0.8,0.3s0.3,0.4,0.3,0.7
		c0,0.1,0,0.3-0.1,0.4s-0.2,0.3-0.3,0.4c-0.1,0.2-0.4,0.4-0.7,0.6c-0.3,0.2-0.4,0.4-0.5,0.5c-0.1,0.1-0.1,0.2-0.2,0.2H134.2z"/>
	<path id="XMLID_260_" class="st10" d="M134.8,21.3l0.5,0c0,0.2,0.1,0.4,0.2,0.5c0.1,0.1,0.3,0.2,0.5,0.2c0.2,0,0.4-0.1,0.5-0.2
		s0.2-0.4,0.2-0.6c0-0.3-0.1-0.4-0.2-0.6c-0.1-0.1-0.3-0.2-0.6-0.2c-0.1,0-0.3,0-0.4,0.1c-0.1,0.1-0.2,0.1-0.3,0.3l-0.4-0.1l0.3-1.8
		h1.8v0.4h-1.4l-0.2,1c0.2-0.1,0.4-0.2,0.7-0.2c0.3,0,0.6,0.1,0.8,0.3s0.3,0.5,0.3,0.8c0,0.3-0.1,0.6-0.3,0.8
		c-0.2,0.3-0.5,0.4-0.9,0.4c-0.3,0-0.6-0.1-0.8-0.3C134.9,21.8,134.8,21.6,134.8,21.3z"/>
	<path id="XMLID_262_" class="st10" d="M142.8,21.8v0.4h-2.4c0-0.1,0-0.2,0.1-0.3c0.1-0.2,0.2-0.3,0.3-0.5c0.1-0.2,0.3-0.3,0.6-0.5
		c0.4-0.3,0.7-0.6,0.8-0.8c0.1-0.2,0.2-0.4,0.2-0.5c0-0.2-0.1-0.3-0.2-0.4c-0.1-0.1-0.3-0.2-0.5-0.2c-0.2,0-0.4,0.1-0.5,0.2
		s-0.2,0.3-0.2,0.5l-0.5,0c0-0.3,0.1-0.6,0.3-0.8c0.2-0.2,0.5-0.3,0.8-0.3c0.3,0,0.6,0.1,0.8,0.3s0.3,0.4,0.3,0.7
		c0,0.1,0,0.3-0.1,0.4s-0.2,0.3-0.3,0.4c-0.1,0.2-0.4,0.4-0.7,0.6c-0.3,0.2-0.4,0.4-0.5,0.5c-0.1,0.1-0.1,0.2-0.2,0.2H142.8z"/>
	<path id="XMLID_264_" class="st10" d="M144.7,22.2v-0.9h-1.6v-0.4l1.6-2.3h0.4v2.3h0.5v0.4h-0.5v0.9H144.7z M144.7,20.9v-1.6
		l-1.1,1.6H144.7z"/>
	<path id="XMLID_267_" class="st10" d="M151.3,21.8v0.4h-2.4c0-0.1,0-0.2,0.1-0.3c0.1-0.2,0.2-0.3,0.3-0.5c0.1-0.2,0.3-0.3,0.6-0.5
		c0.4-0.3,0.7-0.6,0.8-0.8c0.1-0.2,0.2-0.4,0.2-0.5c0-0.2-0.1-0.3-0.2-0.4c-0.1-0.1-0.3-0.2-0.5-0.2c-0.2,0-0.4,0.1-0.5,0.2
		s-0.2,0.3-0.2,0.5l-0.5,0c0-0.3,0.1-0.6,0.3-0.8c0.2-0.2,0.5-0.3,0.8-0.3c0.3,0,0.6,0.1,0.8,0.3s0.3,0.4,0.3,0.7
		c0,0.1,0,0.3-0.1,0.4s-0.2,0.3-0.3,0.4c-0.1,0.2-0.4,0.4-0.7,0.6c-0.3,0.2-0.4,0.4-0.5,0.5c-0.1,0.1-0.1,0.2-0.2,0.2H151.3z"/>
	<path id="XMLID_269_" class="st10" d="M151.8,21.2l0.4-0.1c0.1,0.2,0.1,0.4,0.3,0.5c0.1,0.1,0.3,0.2,0.4,0.2c0.2,0,0.4-0.1,0.5-0.2
		c0.1-0.1,0.2-0.3,0.2-0.5c0-0.2-0.1-0.4-0.2-0.5c-0.1-0.1-0.3-0.2-0.5-0.2c-0.1,0-0.2,0-0.3,0l0-0.4c0,0,0.1,0,0.1,0
		c0.2,0,0.4,0,0.5-0.1s0.2-0.2,0.2-0.5c0-0.2-0.1-0.3-0.2-0.4s-0.2-0.2-0.4-0.2c-0.2,0-0.3,0.1-0.4,0.2s-0.2,0.3-0.2,0.5l-0.4-0.1
		c0.1-0.3,0.2-0.5,0.4-0.7c0.2-0.2,0.4-0.2,0.7-0.2c0.2,0,0.4,0,0.5,0.1c0.2,0.1,0.3,0.2,0.4,0.3c0.1,0.1,0.1,0.3,0.1,0.5
		c0,0.2,0,0.3-0.1,0.4s-0.2,0.2-0.4,0.3c0.2,0,0.4,0.2,0.5,0.3c0.1,0.2,0.2,0.3,0.2,0.6c0,0.3-0.1,0.6-0.3,0.8
		c-0.2,0.2-0.5,0.3-0.9,0.3c-0.3,0-0.6-0.1-0.8-0.3C151.9,21.8,151.8,21.5,151.8,21.2z"/>
	<path id="XMLID_271_" class="st10" d="M159.8,21.8v0.4h-2.4c0-0.1,0-0.2,0.1-0.3c0.1-0.2,0.2-0.3,0.3-0.5c0.1-0.2,0.3-0.3,0.6-0.5
		c0.4-0.3,0.7-0.6,0.8-0.8c0.1-0.2,0.2-0.4,0.2-0.5c0-0.2-0.1-0.3-0.2-0.4c-0.1-0.1-0.3-0.2-0.5-0.2c-0.2,0-0.4,0.1-0.5,0.2
		s-0.2,0.3-0.2,0.5l-0.5,0c0-0.3,0.1-0.6,0.3-0.8c0.2-0.2,0.5-0.3,0.8-0.3c0.3,0,0.6,0.1,0.8,0.3s0.3,0.4,0.3,0.7
		c0,0.1,0,0.3-0.1,0.4s-0.2,0.3-0.3,0.4c-0.1,0.2-0.4,0.4-0.7,0.6c-0.3,0.2-0.4,0.4-0.5,0.5c-0.1,0.1-0.1,0.2-0.2,0.2H159.8z"/>
	<path id="XMLID_273_" class="st10" d="M162.6,21.8v0.4h-2.4c0-0.1,0-0.2,0.1-0.3c0.1-0.2,0.2-0.3,0.3-0.5c0.1-0.2,0.3-0.3,0.6-0.5
		c0.4-0.3,0.7-0.6,0.8-0.8c0.1-0.2,0.2-0.4,0.2-0.5c0-0.2-0.1-0.3-0.2-0.4c-0.1-0.1-0.3-0.2-0.5-0.2c-0.2,0-0.4,0.1-0.5,0.2
		s-0.2,0.3-0.2,0.5l-0.5,0c0-0.3,0.1-0.6,0.3-0.8c0.2-0.2,0.5-0.3,0.8-0.3c0.3,0,0.6,0.1,0.8,0.3s0.3,0.4,0.3,0.7
		c0,0.1,0,0.3-0.1,0.4s-0.2,0.3-0.3,0.4c-0.1,0.2-0.4,0.4-0.7,0.6c-0.3,0.2-0.4,0.4-0.5,0.5c-0.1,0.1-0.1,0.2-0.2,0.2H162.6z"/>
	<path id="XMLID_275_" class="st10" d="M168.3,21.8v0.4H166c0-0.1,0-0.2,0.1-0.3c0.1-0.2,0.2-0.3,0.3-0.5c0.1-0.2,0.3-0.3,0.6-0.5
		c0.4-0.3,0.7-0.6,0.8-0.8c0.1-0.2,0.2-0.4,0.2-0.5c0-0.2-0.1-0.3-0.2-0.4c-0.1-0.1-0.3-0.2-0.5-0.2c-0.2,0-0.4,0.1-0.5,0.2
		s-0.2,0.3-0.2,0.5l-0.5,0c0-0.3,0.1-0.6,0.3-0.8c0.2-0.2,0.5-0.3,0.8-0.3c0.3,0,0.6,0.1,0.8,0.3s0.3,0.4,0.3,0.7
		c0,0.1,0,0.3-0.1,0.4s-0.2,0.3-0.3,0.4c-0.1,0.2-0.4,0.4-0.7,0.6c-0.3,0.2-0.4,0.4-0.5,0.5c-0.1,0.1-0.1,0.2-0.2,0.2H168.3z"/>
	<path id="XMLID_277_" class="st10" d="M170.5,22.2h-0.4v-2.8c-0.1,0.1-0.2,0.2-0.4,0.3c-0.2,0.1-0.3,0.2-0.5,0.2v-0.4
		c0.2-0.1,0.5-0.3,0.6-0.4s0.3-0.3,0.4-0.5h0.3V22.2z"/>
	<path id="XMLID_279_" class="st10" d="M176.8,21.8v0.4h-2.4c0-0.1,0-0.2,0.1-0.3c0.1-0.2,0.2-0.3,0.3-0.5c0.1-0.2,0.3-0.3,0.6-0.5
		c0.4-0.3,0.7-0.6,0.8-0.8c0.1-0.2,0.2-0.4,0.2-0.5c0-0.2-0.1-0.3-0.2-0.4c-0.1-0.1-0.3-0.2-0.5-0.2c-0.2,0-0.4,0.1-0.5,0.2
		s-0.2,0.3-0.2,0.5l-0.5,0c0-0.3,0.1-0.6,0.3-0.8c0.2-0.2,0.5-0.3,0.8-0.3c0.3,0,0.6,0.1,0.8,0.3s0.3,0.4,0.3,0.7
		c0,0.1,0,0.3-0.1,0.4s-0.2,0.3-0.3,0.4c-0.1,0.2-0.4,0.4-0.7,0.6c-0.3,0.2-0.4,0.4-0.5,0.5c-0.1,0.1-0.1,0.2-0.2,0.2H176.8z"/>
	<path id="XMLID_281_" class="st10" d="M177.4,20.4c0-0.4,0-0.8,0.1-1c0.1-0.3,0.2-0.5,0.4-0.6c0.2-0.1,0.4-0.2,0.6-0.2
		c0.2,0,0.4,0,0.5,0.1c0.1,0.1,0.3,0.2,0.4,0.3c0.1,0.1,0.2,0.3,0.2,0.5c0.1,0.2,0.1,0.5,0.1,0.8c0,0.4,0,0.8-0.1,1
		c-0.1,0.3-0.2,0.5-0.4,0.6c-0.2,0.1-0.4,0.2-0.7,0.2c-0.3,0-0.6-0.1-0.8-0.4C177.5,21.6,177.4,21.1,177.4,20.4z M177.8,20.4
		c0,0.6,0.1,1,0.2,1.2c0.1,0.2,0.3,0.3,0.5,0.3s0.4-0.1,0.5-0.3c0.1-0.2,0.2-0.6,0.2-1.2c0-0.6-0.1-1-0.2-1.2
		c-0.1-0.2-0.3-0.3-0.5-0.3c-0.2,0-0.4,0.1-0.5,0.3C177.9,19.4,177.8,19.8,177.8,20.4z"/>
	<path id="XMLID_284_" class="st10" d="M184.7,22.2h-0.4v-2.8c-0.1,0.1-0.2,0.2-0.4,0.3c-0.2,0.1-0.3,0.2-0.5,0.2v-0.4
		c0.2-0.1,0.5-0.3,0.6-0.4s0.3-0.3,0.4-0.5h0.3V22.2z"/>
	<path id="XMLID_286_" class="st10" d="M185.9,21.4l0.4,0c0,0.2,0.1,0.3,0.2,0.4s0.2,0.1,0.4,0.1c0.1,0,0.3,0,0.4-0.1
		c0.1-0.1,0.2-0.1,0.2-0.2c0.1-0.1,0.1-0.2,0.2-0.4s0.1-0.4,0.1-0.5c0,0,0,0,0-0.1c-0.1,0.1-0.2,0.3-0.4,0.3
		c-0.2,0.1-0.3,0.1-0.5,0.1c-0.3,0-0.5-0.1-0.8-0.3s-0.3-0.5-0.3-0.8c0-0.4,0.1-0.7,0.3-0.9c0.2-0.2,0.5-0.3,0.8-0.3
		c0.2,0,0.4,0.1,0.6,0.2c0.2,0.1,0.3,0.3,0.4,0.5c0.1,0.2,0.1,0.6,0.1,1c0,0.5,0,0.8-0.1,1.1c-0.1,0.3-0.2,0.5-0.4,0.6
		c-0.2,0.1-0.4,0.2-0.7,0.2c-0.3,0-0.5-0.1-0.7-0.2C186.1,21.9,186,21.6,185.9,21.4z M187.7,19.8c0-0.3-0.1-0.5-0.2-0.6
		c-0.1-0.1-0.3-0.2-0.5-0.2c-0.2,0-0.4,0.1-0.5,0.2s-0.2,0.4-0.2,0.6c0,0.2,0.1,0.4,0.2,0.6c0.1,0.1,0.3,0.2,0.5,0.2
		c0.2,0,0.4-0.1,0.5-0.2C187.7,20.2,187.7,20,187.7,19.8z"/>
	<path id="XMLID_289_" class="st10" d="M193.2,22.2h-0.4v-2.8c-0.1,0.1-0.2,0.2-0.4,0.3c-0.2,0.1-0.3,0.2-0.5,0.2v-0.4
		c0.2-0.1,0.5-0.3,0.6-0.4s0.3-0.3,0.4-0.5h0.3V22.2z"/>
	<path id="XMLID_291_" class="st10" d="M195.1,20.3c-0.2-0.1-0.3-0.2-0.4-0.3s-0.1-0.3-0.1-0.4c0-0.3,0.1-0.5,0.3-0.7
		s0.4-0.3,0.7-0.3c0.3,0,0.6,0.1,0.8,0.3c0.2,0.2,0.3,0.4,0.3,0.7c0,0.2,0,0.3-0.1,0.4c-0.1,0.1-0.2,0.2-0.4,0.3
		c0.2,0.1,0.4,0.2,0.5,0.3c0.1,0.2,0.2,0.4,0.2,0.6c0,0.3-0.1,0.6-0.3,0.8s-0.5,0.3-0.9,0.3s-0.6-0.1-0.9-0.3
		c-0.2-0.2-0.3-0.5-0.3-0.8c0-0.2,0.1-0.4,0.2-0.6C194.7,20.4,194.9,20.3,195.1,20.3z M194.8,21.2c0,0.1,0,0.2,0.1,0.4
		c0.1,0.1,0.1,0.2,0.3,0.3c0.1,0.1,0.2,0.1,0.4,0.1c0.2,0,0.4-0.1,0.5-0.2s0.2-0.3,0.2-0.5c0-0.2-0.1-0.4-0.2-0.5
		c-0.1-0.1-0.3-0.2-0.5-0.2c-0.2,0-0.4,0.1-0.5,0.2C194.9,20.8,194.8,21,194.8,21.2z M195,19.5c0,0.2,0.1,0.3,0.2,0.4
		s0.3,0.2,0.4,0.2c0.2,0,0.3-0.1,0.4-0.2c0.1-0.1,0.2-0.2,0.2-0.4c0-0.2-0.1-0.3-0.2-0.4c-0.1-0.1-0.3-0.2-0.4-0.2
		c-0.2,0-0.3,0.1-0.4,0.2S195,19.4,195,19.5z"/>
	<path id="XMLID_295_" class="st10" d="M201.7,22.2h-0.4v-2.8c-0.1,0.1-0.2,0.2-0.4,0.3c-0.2,0.1-0.3,0.2-0.5,0.2v-0.4
		c0.2-0.1,0.5-0.3,0.6-0.4s0.3-0.3,0.4-0.5h0.3V22.2z"/>
	<path id="XMLID_297_" class="st10" d="M202.9,19.1v-0.4h2.3V19c-0.2,0.2-0.5,0.6-0.7,1c-0.2,0.4-0.4,0.8-0.5,1.2
		c-0.1,0.3-0.1,0.6-0.2,1h-0.5c0-0.3,0.1-0.6,0.2-1s0.3-0.8,0.5-1.2c0.2-0.4,0.4-0.7,0.6-0.9H202.9z"/>
	<path id="XMLID_299_" class="st10" d="M210.3,22.2h-0.4v-2.8c-0.1,0.1-0.2,0.2-0.4,0.3c-0.2,0.1-0.3,0.2-0.5,0.2v-0.4
		c0.2-0.1,0.5-0.3,0.6-0.4s0.3-0.3,0.4-0.5h0.3V22.2z"/>
	<path id="XMLID_301_" class="st10" d="M213.7,19.5l-0.4,0c0-0.2-0.1-0.3-0.2-0.4c-0.1-0.1-0.3-0.2-0.4-0.2c-0.1,0-0.3,0-0.4,0.1
		c-0.1,0.1-0.2,0.2-0.3,0.4s-0.1,0.5-0.1,0.8c0.1-0.2,0.2-0.3,0.4-0.4s0.3-0.1,0.5-0.1c0.3,0,0.5,0.1,0.7,0.3
		c0.2,0.2,0.3,0.5,0.3,0.8c0,0.2,0,0.4-0.1,0.6c-0.1,0.2-0.2,0.3-0.4,0.4s-0.4,0.2-0.6,0.2c-0.4,0-0.7-0.1-0.9-0.4
		c-0.2-0.3-0.3-0.7-0.3-1.3c0-0.7,0.1-1.2,0.4-1.5c0.2-0.3,0.5-0.4,0.9-0.4c0.3,0,0.5,0.1,0.7,0.2C213.6,19,213.7,19.2,213.7,19.5z
		 M211.9,21c0,0.2,0,0.3,0.1,0.4c0.1,0.1,0.2,0.2,0.3,0.3c0.1,0.1,0.2,0.1,0.4,0.1c0.2,0,0.3-0.1,0.5-0.2s0.2-0.4,0.2-0.6
		c0-0.2-0.1-0.4-0.2-0.6c-0.1-0.1-0.3-0.2-0.5-0.2c-0.2,0-0.4,0.1-0.5,0.2C212,20.6,211.9,20.8,211.9,21z"/>
	<path id="XMLID_304_" class="st10" d="M218.8,22.2h-0.4v-2.8c-0.1,0.1-0.2,0.2-0.4,0.3c-0.2,0.1-0.3,0.2-0.5,0.2v-0.4
		c0.2-0.1,0.5-0.3,0.6-0.4s0.3-0.3,0.4-0.5h0.3V22.2z"/>
	<path id="XMLID_306_" class="st10" d="M220,21.3l0.5,0c0,0.2,0.1,0.4,0.2,0.5c0.1,0.1,0.3,0.2,0.5,0.2c0.2,0,0.4-0.1,0.5-0.2
		s0.2-0.4,0.2-0.6c0-0.3-0.1-0.4-0.2-0.6c-0.1-0.1-0.3-0.2-0.6-0.2c-0.1,0-0.3,0-0.4,0.1c-0.1,0.1-0.2,0.1-0.3,0.3l-0.4-0.1l0.3-1.8
		h1.8v0.4h-1.4l-0.2,1c0.2-0.1,0.4-0.2,0.7-0.2c0.3,0,0.6,0.1,0.8,0.3s0.3,0.5,0.3,0.8c0,0.3-0.1,0.6-0.3,0.8
		c-0.2,0.3-0.5,0.4-0.9,0.4c-0.3,0-0.6-0.1-0.8-0.3C220.1,21.8,220,21.6,220,21.3z"/>
	<path id="XMLID_308_" class="st10" d="M227.3,22.2h-0.4v-2.8c-0.1,0.1-0.2,0.2-0.4,0.3c-0.2,0.1-0.3,0.2-0.5,0.2v-0.4
		c0.2-0.1,0.5-0.3,0.6-0.4s0.3-0.3,0.4-0.5h0.3V22.2z"/>
	<path id="XMLID_310_" class="st10" d="M229.9,22.2v-0.9h-1.6v-0.4l1.6-2.3h0.4v2.3h0.5v0.4h-0.5v0.9H229.9z M229.9,20.9v-1.6
		l-1.1,1.6H229.9z"/>
	<path id="XMLID_313_" class="st10" d="M235.8,22.2h-0.4v-2.8c-0.1,0.1-0.2,0.2-0.4,0.3c-0.2,0.1-0.3,0.2-0.5,0.2v-0.4
		c0.2-0.1,0.5-0.3,0.6-0.4s0.3-0.3,0.4-0.5h0.3V22.2z"/>
	<path id="XMLID_315_" class="st10" d="M237,21.2l0.4-0.1c0.1,0.2,0.1,0.4,0.3,0.5c0.1,0.1,0.3,0.2,0.4,0.2c0.2,0,0.4-0.1,0.5-0.2
		c0.1-0.1,0.2-0.3,0.2-0.5c0-0.2-0.1-0.4-0.2-0.5c-0.1-0.1-0.3-0.2-0.5-0.2c-0.1,0-0.2,0-0.3,0l0-0.4c0,0,0.1,0,0.1,0
		c0.2,0,0.4,0,0.5-0.1s0.2-0.2,0.2-0.5c0-0.2-0.1-0.3-0.2-0.4s-0.2-0.2-0.4-0.2c-0.2,0-0.3,0.1-0.4,0.2s-0.2,0.3-0.2,0.5l-0.4-0.1
		c0.1-0.3,0.2-0.5,0.4-0.7c0.2-0.2,0.4-0.2,0.7-0.2c0.2,0,0.4,0,0.5,0.1c0.2,0.1,0.3,0.2,0.4,0.3c0.1,0.1,0.1,0.3,0.1,0.5
		c0,0.2,0,0.3-0.1,0.4s-0.2,0.2-0.4,0.3c0.2,0,0.4,0.2,0.5,0.3c0.1,0.2,0.2,0.3,0.2,0.6c0,0.3-0.1,0.6-0.3,0.8
		c-0.2,0.2-0.5,0.3-0.9,0.3c-0.3,0-0.6-0.1-0.8-0.3C237.1,21.8,237,21.5,237,21.2z"/>
	<path id="XMLID_317_" class="st10" d="M244.3,22.2h-0.4v-2.8c-0.1,0.1-0.2,0.2-0.4,0.3c-0.2,0.1-0.3,0.2-0.5,0.2v-0.4
		c0.2-0.1,0.5-0.3,0.6-0.4s0.3-0.3,0.4-0.5h0.3V22.2z"/>
	<path id="XMLID_319_" class="st10" d="M247.8,21.8v0.4h-2.4c0-0.1,0-0.2,0.1-0.3c0.1-0.2,0.2-0.3,0.3-0.5c0.1-0.2,0.3-0.3,0.6-0.5
		c0.4-0.3,0.7-0.6,0.8-0.8c0.1-0.2,0.2-0.4,0.2-0.5c0-0.2-0.1-0.3-0.2-0.4c-0.1-0.1-0.3-0.2-0.5-0.2c-0.2,0-0.4,0.1-0.5,0.2
		s-0.2,0.3-0.2,0.5l-0.5,0c0-0.3,0.1-0.6,0.3-0.8c0.2-0.2,0.5-0.3,0.8-0.3c0.3,0,0.6,0.1,0.8,0.3s0.3,0.4,0.3,0.7
		c0,0.1,0,0.3-0.1,0.4s-0.2,0.3-0.3,0.4c-0.1,0.2-0.4,0.4-0.7,0.6c-0.3,0.2-0.4,0.4-0.5,0.5c-0.1,0.1-0.1,0.2-0.2,0.2H247.8z"/>
	<path id="XMLID_321_" class="st10" d="M252.9,22.2h-0.4v-2.8c-0.1,0.1-0.2,0.2-0.4,0.3c-0.2,0.1-0.3,0.2-0.5,0.2v-0.4
		c0.2-0.1,0.5-0.3,0.6-0.4s0.3-0.3,0.4-0.5h0.3V22.2z"/>
	<path id="XMLID_323_" class="st10" d="M255.3,22.2h-0.4v-2.8c-0.1,0.1-0.2,0.2-0.4,0.3c-0.2,0.1-0.3,0.2-0.5,0.2v-0.4
		c0.2-0.1,0.5-0.3,0.6-0.4s0.3-0.3,0.4-0.5h0.3V22.2z"/>
	<path id="XMLID_325_" class="st10" d="M261,22.2h-0.4v-2.8c-0.1,0.1-0.2,0.2-0.4,0.3c-0.2,0.1-0.3,0.2-0.5,0.2v-0.4
		c0.2-0.1,0.5-0.3,0.6-0.4s0.3-0.3,0.4-0.5h0.3V22.2z"/>
	<path id="XMLID_327_" class="st10" d="M262.2,20.4c0-0.4,0-0.8,0.1-1c0.1-0.3,0.2-0.5,0.4-0.6c0.2-0.1,0.4-0.2,0.6-0.2
		c0.2,0,0.4,0,0.5,0.1c0.1,0.1,0.3,0.2,0.4,0.3c0.1,0.1,0.2,0.3,0.2,0.5c0.1,0.2,0.1,0.5,0.1,0.8c0,0.4,0,0.8-0.1,1
		c-0.1,0.3-0.2,0.5-0.4,0.6c-0.2,0.1-0.4,0.2-0.7,0.2c-0.3,0-0.6-0.1-0.8-0.4C262.3,21.6,262.2,21.1,262.2,20.4z M262.6,20.4
		c0,0.6,0.1,1,0.2,1.2c0.1,0.2,0.3,0.3,0.5,0.3s0.4-0.1,0.5-0.3c0.1-0.2,0.2-0.6,0.2-1.2c0-0.6-0.1-1-0.2-1.2
		c-0.1-0.2-0.3-0.3-0.5-0.3c-0.2,0-0.4,0.1-0.5,0.3C262.7,19.4,262.6,19.8,262.6,20.4z"/>
	<path id="XMLID_330_" class="st10" d="M267.9,21.4l0.4,0c0,0.2,0.1,0.3,0.2,0.4s0.2,0.1,0.4,0.1c0.1,0,0.3,0,0.4-0.1
		c0.1-0.1,0.2-0.1,0.2-0.2c0.1-0.1,0.1-0.2,0.2-0.4s0.1-0.4,0.1-0.5c0,0,0,0,0-0.1c-0.1,0.1-0.2,0.3-0.4,0.3
		c-0.2,0.1-0.3,0.1-0.5,0.1c-0.3,0-0.5-0.1-0.8-0.3s-0.3-0.5-0.3-0.8c0-0.4,0.1-0.7,0.3-0.9c0.2-0.2,0.5-0.3,0.8-0.3
		c0.2,0,0.4,0.1,0.6,0.2c0.2,0.1,0.3,0.3,0.4,0.5c0.1,0.2,0.1,0.6,0.1,1c0,0.5,0,0.8-0.1,1.1c-0.1,0.3-0.2,0.5-0.4,0.6
		c-0.2,0.1-0.4,0.2-0.7,0.2c-0.3,0-0.5-0.1-0.7-0.2C268.1,21.9,268,21.6,267.9,21.4z M269.7,19.8c0-0.3-0.1-0.5-0.2-0.6
		c-0.1-0.1-0.3-0.2-0.5-0.2c-0.2,0-0.4,0.1-0.5,0.2s-0.2,0.4-0.2,0.6c0,0.2,0.1,0.4,0.2,0.6c0.1,0.1,0.3,0.2,0.5,0.2
		c0.2,0,0.4-0.1,0.5-0.2C269.7,20.2,269.7,20,269.7,19.8z"/>
	<path id="XMLID_337_" class="st10" d="M274.2,20.3c-0.2-0.1-0.3-0.2-0.4-0.3s-0.1-0.3-0.1-0.4c0-0.3,0.1-0.5,0.3-0.7
		s0.4-0.3,0.7-0.3c0.3,0,0.6,0.1,0.8,0.3c0.2,0.2,0.3,0.4,0.3,0.7c0,0.2,0,0.3-0.1,0.4c-0.1,0.1-0.2,0.2-0.4,0.3
		c0.2,0.1,0.4,0.2,0.5,0.3c0.1,0.2,0.2,0.4,0.2,0.6c0,0.3-0.1,0.6-0.3,0.8s-0.5,0.3-0.9,0.3s-0.6-0.1-0.9-0.3
		c-0.2-0.2-0.3-0.5-0.3-0.8c0-0.2,0.1-0.4,0.2-0.6C273.9,20.4,274,20.3,274.2,20.3z M274,21.2c0,0.1,0,0.2,0.1,0.4
		c0.1,0.1,0.1,0.2,0.3,0.3c0.1,0.1,0.2,0.1,0.4,0.1c0.2,0,0.4-0.1,0.5-0.2s0.2-0.3,0.2-0.5c0-0.2-0.1-0.4-0.2-0.5
		c-0.1-0.1-0.3-0.2-0.5-0.2c-0.2,0-0.4,0.1-0.5,0.2C274.1,20.8,274,21,274,21.2z M274.2,19.5c0,0.2,0.1,0.3,0.2,0.4s0.3,0.2,0.4,0.2
		c0.2,0,0.3-0.1,0.4-0.2c0.1-0.1,0.2-0.2,0.2-0.4c0-0.2-0.1-0.3-0.2-0.4c-0.1-0.1-0.3-0.2-0.4-0.2c-0.2,0-0.3,0.1-0.4,0.2
		S274.2,19.4,274.2,19.5z"/>
	<path id="XMLID_346_" class="st10" d="M279.3,19.1v-0.4h2.3V19c-0.2,0.2-0.5,0.6-0.7,1c-0.2,0.4-0.4,0.8-0.5,1.2
		c-0.1,0.3-0.1,0.6-0.2,1h-0.5c0-0.3,0.1-0.6,0.2-1s0.3-0.8,0.5-1.2c0.2-0.4,0.4-0.7,0.6-0.9H279.3z"/>
	<path id="XMLID_348_" class="st10" d="M287.2,19.5l-0.4,0c0-0.2-0.1-0.3-0.2-0.4c-0.1-0.1-0.3-0.2-0.4-0.2c-0.1,0-0.3,0-0.4,0.1
		c-0.1,0.1-0.2,0.2-0.3,0.4s-0.1,0.5-0.1,0.8c0.1-0.2,0.2-0.3,0.4-0.4s0.3-0.1,0.5-0.1c0.3,0,0.5,0.1,0.7,0.3
		c0.2,0.2,0.3,0.5,0.3,0.8c0,0.2,0,0.4-0.1,0.6c-0.1,0.2-0.2,0.3-0.4,0.4s-0.4,0.2-0.6,0.2c-0.4,0-0.7-0.1-0.9-0.4
		c-0.2-0.3-0.3-0.7-0.3-1.3c0-0.7,0.1-1.2,0.4-1.5c0.2-0.3,0.5-0.4,0.9-0.4c0.3,0,0.5,0.1,0.7,0.2C287.1,19,287.2,19.2,287.2,19.5z
		 M285.4,21c0,0.2,0,0.3,0.1,0.4c0.1,0.1,0.2,0.2,0.3,0.3c0.1,0.1,0.2,0.1,0.4,0.1c0.2,0,0.3-0.1,0.5-0.2s0.2-0.4,0.2-0.6
		c0-0.2-0.1-0.4-0.2-0.6c-0.1-0.1-0.3-0.2-0.5-0.2c-0.2,0-0.4,0.1-0.5,0.2C285.5,20.6,285.4,20.8,285.4,21z"/>
	<path id="XMLID_352_" class="st10" d="M290.7,21.3l0.5,0c0,0.2,0.1,0.4,0.2,0.5c0.1,0.1,0.3,0.2,0.5,0.2c0.2,0,0.4-0.1,0.5-0.2
		s0.2-0.4,0.2-0.6c0-0.3-0.1-0.4-0.2-0.6c-0.1-0.1-0.3-0.2-0.6-0.2c-0.1,0-0.3,0-0.4,0.1c-0.1,0.1-0.2,0.1-0.3,0.3l-0.4-0.1l0.3-1.8
		h1.8v0.4h-1.4l-0.2,1c0.2-0.1,0.4-0.2,0.7-0.2c0.3,0,0.6,0.1,0.8,0.3s0.3,0.5,0.3,0.8c0,0.3-0.1,0.6-0.3,0.8
		c-0.2,0.3-0.5,0.4-0.9,0.4c-0.3,0-0.6-0.1-0.8-0.3C290.8,21.8,290.7,21.6,290.7,21.3z"/>
	<path id="XMLID_358_" class="st10" d="M297.8,22.2v-0.9h-1.6v-0.4l1.6-2.3h0.4v2.3h0.5v0.4h-0.5v0.9H297.8z M297.8,20.9v-1.6
		l-1.1,1.6H297.8z"/>
	<path id="XMLID_362_" class="st10" d="M302,21.2l0.4-0.1c0.1,0.2,0.1,0.4,0.3,0.5c0.1,0.1,0.3,0.2,0.4,0.2c0.2,0,0.4-0.1,0.5-0.2
		c0.1-0.1,0.2-0.3,0.2-0.5c0-0.2-0.1-0.4-0.2-0.5c-0.1-0.1-0.3-0.2-0.5-0.2c-0.1,0-0.2,0-0.3,0l0-0.4c0,0,0.1,0,0.1,0
		c0.2,0,0.4,0,0.5-0.1s0.2-0.2,0.2-0.5c0-0.2-0.1-0.3-0.2-0.4s-0.2-0.2-0.4-0.2c-0.2,0-0.3,0.1-0.4,0.2s-0.2,0.3-0.2,0.5l-0.4-0.1
		c0.1-0.3,0.2-0.5,0.4-0.7c0.2-0.2,0.4-0.2,0.7-0.2c0.2,0,0.4,0,0.5,0.1c0.2,0.1,0.3,0.2,0.4,0.3c0.1,0.1,0.1,0.3,0.1,0.5
		c0,0.2,0,0.3-0.1,0.4s-0.2,0.2-0.4,0.3c0.2,0,0.4,0.2,0.5,0.3c0.1,0.2,0.2,0.3,0.2,0.6c0,0.3-0.1,0.6-0.3,0.8
		c-0.2,0.2-0.5,0.3-0.9,0.3c-0.3,0-0.6-0.1-0.8-0.3C302.2,21.8,302.1,21.5,302,21.2z"/>
	<path id="XMLID_460_" class="st10" d="M310,21.8v0.4h-2.4c0-0.1,0-0.2,0.1-0.3c0.1-0.2,0.2-0.3,0.3-0.5c0.1-0.2,0.3-0.3,0.6-0.5
		c0.4-0.3,0.7-0.6,0.8-0.8c0.1-0.2,0.2-0.4,0.2-0.5c0-0.2-0.1-0.3-0.2-0.4c-0.1-0.1-0.3-0.2-0.5-0.2c-0.2,0-0.4,0.1-0.5,0.2
		s-0.2,0.3-0.2,0.5l-0.5,0c0-0.3,0.1-0.6,0.3-0.8c0.2-0.2,0.5-0.3,0.8-0.3c0.3,0,0.6,0.1,0.8,0.3s0.3,0.4,0.3,0.7
		c0,0.1,0,0.3-0.1,0.4s-0.2,0.3-0.3,0.4c-0.1,0.2-0.4,0.4-0.7,0.6c-0.3,0.2-0.4,0.4-0.5,0.5c-0.1,0.1-0.1,0.2-0.2,0.2H310z"/>
	<path id="XMLID_463_" class="st10" d="M315.1,22.2h-0.4v-2.8c-0.1,0.1-0.2,0.2-0.4,0.3c-0.2,0.1-0.3,0.2-0.5,0.2v-0.4
		c0.2-0.1,0.5-0.3,0.6-0.4s0.3-0.3,0.4-0.5h0.3V22.2z"/>
	<path id="XMLID_466_" class="st10" d="M319.1,20.4c0-0.4,0-0.8,0.1-1c0.1-0.3,0.2-0.5,0.4-0.6c0.2-0.1,0.4-0.2,0.6-0.2
		c0.2,0,0.4,0,0.5,0.1c0.1,0.1,0.3,0.2,0.4,0.3c0.1,0.1,0.2,0.3,0.2,0.5c0.1,0.2,0.1,0.5,0.1,0.8c0,0.4,0,0.8-0.1,1
		c-0.1,0.3-0.2,0.5-0.4,0.6c-0.2,0.1-0.4,0.2-0.7,0.2c-0.3,0-0.6-0.1-0.8-0.4C319.2,21.6,319.1,21.1,319.1,20.4z M319.6,20.4
		c0,0.6,0.1,1,0.2,1.2c0.1,0.2,0.3,0.3,0.5,0.3s0.4-0.1,0.5-0.3c0.1-0.2,0.2-0.6,0.2-1.2c0-0.6-0.1-1-0.2-1.2
		c-0.1-0.2-0.3-0.3-0.5-0.3c-0.2,0-0.4,0.1-0.5,0.3C319.7,19.4,319.6,19.8,319.6,20.4z"/>
</g>
<g id="XMLID_187_">
	<g id="XMLID_461_">
		<path id="XMLID_501_" class="st1" d="M6.3,14v-3h1.3c0.3,0,0.6,0,0.7,0.1c0.1,0.1,0.3,0.2,0.4,0.3c0.1,0.1,0.1,0.3,0.1,0.5
			c0,0.2-0.1,0.4-0.2,0.6c-0.1,0.1-0.3,0.2-0.6,0.3c0.1,0.1,0.2,0.2,0.3,0.3c0.1,0.1,0.2,0.3,0.4,0.5L9.1,14H8.4l-0.4-0.7
			c-0.2-0.2-0.3-0.4-0.3-0.4c-0.1-0.1-0.1-0.1-0.2-0.1c-0.1,0-0.2,0-0.3,0H7V14H6.3z M7,12.2h0.5c0.3,0,0.5,0,0.6,0
			c0.1,0,0.1-0.1,0.2-0.1s0.1-0.1,0.1-0.2c0-0.1,0-0.2-0.1-0.2S8,11.5,7.9,11.5c0,0-0.2,0-0.4,0H7V12.2z"/>
	</g>
</g>
<g id="XMLID_172_">
	<g id="XMLID_654_">
		<path id="XMLID_667_" class="st1" d="M162.4,35.9l-0.7,0.7h-4.5l-0.7-0.7l0.7-0.7h4.5L162.4,35.9z"/>
		<path id="XMLID_661_" class="st1" d="M165.3,37.1v2l-1.5,1.5v-3.8l0.5-0.5L165.3,37.1z M169.8,31l-1.5,1.5h-2.7l-1.5-1.5H169.8z
			 M169.8,40.8h-5.7l1.5-1.5h2.7L169.8,40.8z M168.5,35.2l0.7,0.7l-0.7,0.7h-3.1l-0.7-0.7l0.7-0.7H168.5z M168.6,34.7v-2l1.5-1.4
			v3.8l-0.5,0.6L168.6,34.7z"/>
		<path id="XMLID_655_" class="st1" d="M177.6,31l-1.5,1.5h-2.7L172,31H177.6z M177.6,40.8H172l1.5-1.5h2.7L177.6,40.8z M176.4,35.2
			l0.7,0.7l-0.7,0.7h-3.1l-0.7-0.7l0.7-0.7H176.4z M176.4,34.7v-2l1.5-1.4v3.8l-0.5,0.6L176.4,34.7z M177.9,36.8v3.8l-1.5-1.5v-2
			l0.9-0.9L177.9,36.8z"/>
	</g>
</g>
<rect id="XMLID_354_" x="139.6" y="42.8" class="st1" width="38.6" height="0.6"/>
<g id="XMLID_157_">
	<g id="XMLID_638_">
		<path id="XMLID_650_" class="st1" d="M200,48.1v-3h1.4c0.3,0,0.5,0,0.6,0.1c0.1,0.1,0.3,0.2,0.3,0.3c0.1,0.1,0.1,0.3,0.1,0.5
			c0,0.2-0.1,0.4-0.2,0.5c-0.1,0.1-0.4,0.2-0.6,0.3c0.1,0.1,0.2,0.1,0.2,0.2c0.1,0.1,0.2,0.2,0.3,0.4l0.5,0.8h-0.5l-0.4-0.6
			c-0.1-0.2-0.2-0.3-0.3-0.4c-0.1-0.1-0.1-0.2-0.2-0.2c-0.1,0-0.1-0.1-0.2-0.1c0,0-0.1,0-0.2,0h-0.5v1.4H200z M200.4,46.4h0.9
			c0.2,0,0.3,0,0.4-0.1c0.1,0,0.2-0.1,0.2-0.2s0.1-0.2,0.1-0.3c0-0.1-0.1-0.3-0.2-0.4c-0.1-0.1-0.3-0.1-0.5-0.1h-1V46.4z"/>
		<path id="XMLID_648_" class="st1" d="M203.1,48.1v-3h0.6l0.7,2.2c0.1,0.2,0.1,0.4,0.1,0.5c0-0.1,0.1-0.3,0.2-0.5l0.7-2.1h0.5v3
			h-0.4v-2.6l-0.9,2.6h-0.4l-0.9-2.6v2.6H203.1z"/>
		<path id="XMLID_646_" class="st1" d="M206.5,47.1l0.4,0c0,0.2,0.1,0.3,0.1,0.4c0.1,0.1,0.2,0.2,0.3,0.2c0.1,0.1,0.3,0.1,0.5,0.1
			c0.2,0,0.3,0,0.4-0.1s0.2-0.1,0.3-0.2c0.1-0.1,0.1-0.2,0.1-0.3c0-0.1,0-0.2-0.1-0.3c-0.1-0.1-0.1-0.1-0.3-0.2
			c-0.1,0-0.3-0.1-0.5-0.1c-0.3-0.1-0.5-0.1-0.6-0.2c-0.1-0.1-0.3-0.2-0.3-0.3c-0.1-0.1-0.1-0.2-0.1-0.4c0-0.2,0-0.3,0.1-0.4
			c0.1-0.1,0.2-0.2,0.4-0.3c0.2-0.1,0.4-0.1,0.6-0.1c0.2,0,0.4,0,0.6,0.1c0.2,0.1,0.3,0.2,0.4,0.3c0.1,0.1,0.1,0.3,0.1,0.5l-0.4,0
			c0-0.2-0.1-0.3-0.2-0.4c-0.1-0.1-0.3-0.1-0.5-0.1c-0.2,0-0.4,0-0.5,0.1c-0.1,0.1-0.2,0.2-0.2,0.3c0,0.1,0,0.2,0.1,0.3
			c0.1,0.1,0.3,0.1,0.6,0.2c0.3,0.1,0.6,0.1,0.7,0.2c0.2,0.1,0.3,0.2,0.4,0.3s0.1,0.3,0.1,0.4c0,0.2,0,0.3-0.1,0.5s-0.2,0.3-0.4,0.3
			c-0.2,0.1-0.4,0.1-0.6,0.1c-0.3,0-0.5,0-0.7-0.1c-0.2-0.1-0.3-0.2-0.4-0.4C206.6,47.5,206.5,47.3,206.5,47.1z"/>
		<path id="XMLID_644_" class="st1" d="M210.7,48.1v-3h0.6l0.7,2.2c0.1,0.2,0.1,0.4,0.1,0.5c0-0.1,0.1-0.3,0.2-0.5L213,45h0.5v3
			h-0.4v-2.6l-0.9,2.6h-0.4l-0.9-2.6v2.6H210.7z"/>
		<path id="XMLID_641_" class="st1" d="M213.9,48.1l1.2-3h0.4l1.2,3h-0.5l-0.4-0.9h-1.3l-0.3,0.9H213.9z M214.8,46.8h1l-0.3-0.8
			c-0.1-0.3-0.2-0.5-0.2-0.6c0,0.2-0.1,0.4-0.2,0.6L214.8,46.8z"/>
		<path id="XMLID_639_" class="st1" d="M216.8,48.1l1.2-1.6l-1-1.5h0.5l0.6,0.8c0.1,0.2,0.2,0.3,0.2,0.4c0.1-0.1,0.1-0.2,0.2-0.3
			L219,45h0.4l-1.1,1.4l1.2,1.6h-0.5l-0.8-1.1c0-0.1-0.1-0.1-0.1-0.2c-0.1,0.1-0.1,0.2-0.1,0.2l-0.8,1.1H216.8z"/>
	</g>
</g>
<g id="XMLID_142_">
	<g id="XMLID_604_">
		<path id="XMLID_635_" class="st1" d="M213.4,35.9l-0.7,0.7h-4.5l-0.7-0.7l0.7-0.7h4.5L213.4,35.9z"/>
		<path id="XMLID_629_" class="st1" d="M216.4,37.1v2l-1.5,1.5v-3.8l0.5-0.5L216.4,37.1z M220.8,31l-1.5,1.5h-2.7l-1.5-1.5H220.8z
			 M220.8,40.8h-5.7l1.5-1.5h2.7L220.8,40.8z M219.6,35.2l0.7,0.7l-0.7,0.7h-3.1l-0.7-0.7l0.7-0.7H219.6z M219.6,34.7v-2l1.5-1.4
			v3.8l-0.5,0.6L219.6,34.7z"/>
		<path id="XMLID_605_" class="st1" d="M228.7,31l-1.5,1.5h-2.7L223,31H228.7z M228.7,40.8H223l1.5-1.5h2.7L228.7,40.8z M227.4,35.2
			l0.7,0.7l-0.7,0.7h-3.1l-0.7-0.7l0.7-0.7H227.4z M227.5,34.7v-2l1.5-1.4v3.8l-0.5,0.6L227.5,34.7z M228.9,36.8v3.8l-1.5-1.5v-2
			l0.9-0.9L228.9,36.8z"/>
	</g>
</g>
<rect id="XMLID_341_" x="190.6" y="42.8" class="st1" width="38.6" height="0.6"/>
<g id="XMLID_111_">
	<g id="XMLID_727_">
		<path id="XMLID_754_" class="st1" d="M238.3,48.1v-3h1.1c0.2,0,0.4,0,0.5,0c0.1,0,0.3,0.1,0.4,0.1c0.1,0.1,0.2,0.2,0.2,0.3
			c0.1,0.1,0.1,0.3,0.1,0.4c0,0.3-0.1,0.5-0.2,0.7c-0.2,0.2-0.5,0.3-0.9,0.3h-0.8v1.2H238.3z M238.7,46.5h0.8c0.3,0,0.4,0,0.6-0.1
			s0.2-0.2,0.2-0.4c0-0.1,0-0.2-0.1-0.3c-0.1-0.1-0.1-0.2-0.3-0.2c-0.1,0-0.2,0-0.4,0h-0.8V46.5z"/>
		<path id="XMLID_752_" class="st1" d="M241.1,48.1v-3h2.2v0.4h-1.8v0.9h1.7v0.4h-1.7v1h1.9v0.4H241.1z"/>
		<path id="XMLID_749_" class="st1" d="M243.6,48.1l1.2-3h0.4l1.2,3H246l-0.4-0.9h-1.3l-0.3,0.9H243.6z M244.5,46.8h1l-0.3-0.8
			c-0.1-0.3-0.2-0.5-0.2-0.6c0,0.2-0.1,0.4-0.2,0.6L244.5,46.8z"/>
		<path id="XMLID_747_" class="st1" d="M246.8,48.1v-3h0.4v1.5l1.5-1.5h0.5l-1.3,1.2l1.3,1.8h-0.5l-1.1-1.5l-0.5,0.5v1.1H246.8z"/>
		<path id="XMLID_745_" class="st1" d="M250.7,47.1l0.4,0c0,0.2,0.1,0.3,0.1,0.4c0.1,0.1,0.2,0.2,0.3,0.2c0.1,0.1,0.3,0.1,0.5,0.1
			c0.2,0,0.3,0,0.4-0.1s0.2-0.1,0.3-0.2c0.1-0.1,0.1-0.2,0.1-0.3c0-0.1,0-0.2-0.1-0.3c-0.1-0.1-0.1-0.1-0.3-0.2
			c-0.1,0-0.3-0.1-0.5-0.1c-0.3-0.1-0.5-0.1-0.6-0.2c-0.1-0.1-0.3-0.2-0.3-0.3c-0.1-0.1-0.1-0.2-0.1-0.4c0-0.2,0-0.3,0.1-0.4
			c0.1-0.1,0.2-0.2,0.4-0.3c0.2-0.1,0.4-0.1,0.6-0.1c0.2,0,0.4,0,0.6,0.1c0.2,0.1,0.3,0.2,0.4,0.3c0.1,0.1,0.1,0.3,0.1,0.5l-0.4,0
			c0-0.2-0.1-0.3-0.2-0.4c-0.1-0.1-0.3-0.1-0.5-0.1c-0.2,0-0.4,0-0.5,0.1c-0.1,0.1-0.2,0.2-0.2,0.3c0,0.1,0,0.2,0.1,0.3
			c0.1,0.1,0.3,0.1,0.6,0.2c0.3,0.1,0.6,0.1,0.7,0.2c0.2,0.1,0.3,0.2,0.4,0.3s0.1,0.3,0.1,0.4c0,0.2,0,0.3-0.1,0.5s-0.2,0.3-0.4,0.3
			c-0.2,0.1-0.4,0.1-0.6,0.1c-0.3,0-0.5,0-0.7-0.1c-0.2-0.1-0.3-0.2-0.4-0.4C250.7,47.5,250.7,47.3,250.7,47.1z"/>
		<path id="XMLID_743_" class="st1" d="M253.7,48.1v-3h0.4v1.3h1.6V45h0.4v3h-0.4v-1.4h-1.6v1.4H253.7z"/>
		<path id="XMLID_740_" class="st1" d="M256.6,46.6c0-0.5,0.1-0.9,0.4-1.2s0.6-0.4,1.1-0.4c0.3,0,0.5,0.1,0.8,0.2
			c0.2,0.1,0.4,0.3,0.5,0.6c0.1,0.2,0.2,0.5,0.2,0.8c0,0.3-0.1,0.6-0.2,0.8c-0.1,0.2-0.3,0.4-0.5,0.6s-0.5,0.2-0.7,0.2
			c-0.3,0-0.5-0.1-0.8-0.2c-0.2-0.1-0.4-0.3-0.5-0.6C256.7,47.1,256.6,46.9,256.6,46.6z M257,46.6c0,0.4,0.1,0.7,0.3,0.9
			c0.2,0.2,0.4,0.3,0.7,0.3c0.3,0,0.6-0.1,0.7-0.3c0.2-0.2,0.3-0.5,0.3-0.9c0-0.2,0-0.5-0.1-0.6c-0.1-0.2-0.2-0.3-0.4-0.4
			c-0.2-0.1-0.3-0.2-0.5-0.2c-0.3,0-0.5,0.1-0.7,0.3C257.1,45.8,257,46.1,257,46.6z"/>
		<path id="XMLID_737_" class="st1" d="M260,48.1v-3h1.4c0.3,0,0.5,0,0.6,0.1c0.1,0.1,0.3,0.2,0.3,0.3c0.1,0.1,0.1,0.3,0.1,0.5
			c0,0.2-0.1,0.4-0.2,0.5c-0.1,0.1-0.4,0.2-0.6,0.3c0.1,0.1,0.2,0.1,0.2,0.2c0.1,0.1,0.2,0.2,0.3,0.4l0.5,0.8h-0.5l-0.4-0.6
			c-0.1-0.2-0.2-0.3-0.3-0.4c-0.1-0.1-0.1-0.2-0.2-0.2c-0.1,0-0.1-0.1-0.2-0.1c0,0-0.1,0-0.2,0h-0.5v1.4H260z M260.4,46.4h0.9
			c0.2,0,0.3,0,0.4-0.1c0.1,0,0.2-0.1,0.2-0.2s0.1-0.2,0.1-0.3c0-0.1-0.1-0.3-0.2-0.4c-0.1-0.1-0.3-0.1-0.5-0.1h-1V46.4z"/>
		<path id="XMLID_735_" class="st1" d="M263.8,48.1v-2.7h-1V45h2.4v0.4h-1v2.7H263.8z"/>
		<path id="XMLID_733_" class="st1" d="M267.4,48.1v-2.7h-1V45h2.4v0.4h-1v2.7H267.4z"/>
		<path id="XMLID_731_" class="st1" d="M269.3,48.1v-3h2.2v0.4h-1.8v0.9h1.7v0.4h-1.7v1h1.9v0.4H269.3z"/>
		<path id="XMLID_728_" class="st1" d="M272.1,48.1v-3h1.4c0.3,0,0.5,0,0.6,0.1c0.1,0.1,0.3,0.2,0.3,0.3c0.1,0.1,0.1,0.3,0.1,0.5
			c0,0.2-0.1,0.4-0.2,0.5c-0.1,0.1-0.4,0.2-0.6,0.3c0.1,0.1,0.2,0.1,0.2,0.2c0.1,0.1,0.2,0.2,0.3,0.4l0.5,0.8h-0.5l-0.4-0.6
			c-0.1-0.2-0.2-0.3-0.3-0.4c-0.1-0.1-0.1-0.2-0.2-0.2c-0.1,0-0.1-0.1-0.2-0.1c0,0-0.1,0-0.2,0h-0.5v1.4H272.1z M272.5,46.4h0.9
			c0.2,0,0.3,0,0.4-0.1c0.1,0,0.2-0.1,0.2-0.2s0.1-0.2,0.1-0.3c0-0.1-0.1-0.3-0.2-0.4c-0.1-0.1-0.3-0.1-0.5-0.1h-1V46.4z"/>
	</g>
</g>
<g id="XMLID_99_">
	<g id="XMLID_569_">
		<path id="XMLID_579_" class="st1" d="M263.5,35.9l-0.7,0.7h-4.5l-0.7-0.7l0.7-0.7h4.5L263.5,35.9z"/>
		<path id="XMLID_576_" class="st1" d="M265.6,34.7v-2l1.5-1.5v3.8l-0.5,0.6L265.6,34.7z M267.1,36.8v3.8l-1.5-1.5v-2l0.9-0.9
			L267.1,36.8z"/>
		<path id="XMLID_570_" class="st1" d="M269.3,35.1v-3.8l1.5,1.4v2l-0.9,0.9L269.3,35.1z M275.3,31l-1.5,1.5h-2.7l-1.5-1.5H275.3z
			 M275.3,40.8h-5.7l1.5-1.5h2.7L275.3,40.8z M274,35.2l0.7,0.7l-0.7,0.7h-3.1l-0.7-0.7l0.7-0.7H274z M275.5,36.7v3.8l-1.5-1.5v-2
			l0.9-0.9L275.5,36.7z"/>
	</g>
</g>
<rect id="XMLID_332_" x="236.9" y="42.8" class="st1" width="38.6" height="0.6"/>
<g id="XMLID_81_">
	<g id="XMLID_611_">
		<path id="XMLID_626_" class="st1" d="M294.5,48.1v-3h1.1c0.2,0,0.4,0,0.5,0c0.1,0,0.3,0.1,0.4,0.1c0.1,0.1,0.2,0.2,0.2,0.3
			c0.1,0.1,0.1,0.3,0.1,0.4c0,0.3-0.1,0.5-0.2,0.7c-0.2,0.2-0.5,0.3-0.9,0.3h-0.8v1.2H294.5z M294.9,46.5h0.8c0.3,0,0.4,0,0.6-0.1
			s0.2-0.2,0.2-0.4c0-0.1,0-0.2-0.1-0.3c-0.1-0.1-0.1-0.2-0.3-0.2c-0.1,0-0.2,0-0.4,0h-0.8V46.5z"/>
		<path id="XMLID_624_" class="st1" d="M297.4,48.1v-3h2.2v0.4h-1.8v0.9h1.7v0.4h-1.7v1h1.9v0.4H297.4z"/>
		<path id="XMLID_621_" class="st1" d="M299.9,48.1l1.2-3h0.4l1.2,3h-0.5l-0.4-0.9h-1.3l-0.3,0.9H299.9z M300.7,46.8h1l-0.3-0.8
			c-0.1-0.3-0.2-0.5-0.2-0.6c0,0.2-0.1,0.4-0.2,0.6L300.7,46.8z"/>
		<path id="XMLID_619_" class="st1" d="M303,48.1v-3h0.4v1.5l1.5-1.5h0.5l-1.3,1.2l1.3,1.8H305l-1.1-1.5l-0.5,0.5v1.1H303z"/>
		<path id="XMLID_617_" class="st1" d="M307,48.1v-3h0.6l0.7,2.2c0.1,0.2,0.1,0.4,0.1,0.5c0-0.1,0.1-0.3,0.2-0.5l0.7-2.1h0.5v3h-0.4
			v-2.6l-0.9,2.6h-0.4l-0.9-2.6v2.6H307z"/>
		<path id="XMLID_614_" class="st1" d="M310.3,48.1l1.2-3h0.4l1.2,3h-0.5l-0.4-0.9H311l-0.3,0.9H310.3z M311.2,46.8h1l-0.3-0.8
			c-0.1-0.3-0.2-0.5-0.2-0.6c0,0.2-0.1,0.4-0.2,0.6L311.2,46.8z"/>
		<path id="XMLID_612_" class="st1" d="M313.1,48.1l1.2-1.6l-1-1.5h0.5l0.6,0.8c0.1,0.2,0.2,0.3,0.2,0.4c0.1-0.1,0.1-0.2,0.2-0.3
			l0.6-0.8h0.4l-1.1,1.4l1.2,1.6h-0.5l-0.8-1.1c0-0.1-0.1-0.1-0.1-0.2c-0.1,0.1-0.1,0.2-0.1,0.2l-0.8,1.1H313.1z"/>
	</g>
</g>
<g id="XMLID_69_">
	<g id="XMLID_556_">
		<path id="XMLID_566_" class="st1" d="M311.6,35.9l-0.7,0.7h-4.5l-0.7-0.7l0.7-0.7h4.5L311.6,35.9z"/>
		<path id="XMLID_563_" class="st1" d="M313.8,34.7v-2l1.5-1.5v3.8l-0.5,0.6L313.8,34.7z M315.2,36.8v3.8l-1.5-1.5v-2l0.9-0.9
			L315.2,36.8z"/>
		<path id="XMLID_557_" class="st1" d="M317.5,35.1v-3.8l1.5,1.4v2l-0.9,0.9L317.5,35.1z M323.4,31l-1.5,1.5h-2.7l-1.5-1.5H323.4z
			 M323.4,40.8h-5.7l1.5-1.5h2.7L323.4,40.8z M322.2,35.2l0.7,0.7l-0.7,0.7H319l-0.7-0.7l0.7-0.7H322.2z M323.7,36.7v3.8l-1.5-1.5
			v-2l0.9-0.9L323.7,36.7z"/>
	</g>
</g>
<rect id="XMLID_56_" x="285.1" y="42.8" class="st1" width="38.6" height="0.6"/>
<path id="XMLID_55_" class="st9" d="M13.1,28.4c0,0.3,0,0.7,0,1l78.2,0v19.8h1V28.4"/>
<g id="XMLID_35_">
	<path id="XMLID_36_" class="st1" d="M23.5,38.3v-4.9l1.9,1.9v2.6L24.2,39L23.5,38.3z M25.4,40.9v2.9l-1.9,1.9v-5.3l0.7-0.7
		L25.4,40.9z M30.3,33.9l-0.9,1h-3.6L23.9,33h5.5L30.3,33.9z M29.6,38.4l0.9,0.9l-0.9,0.9h-4l-0.9-0.9l0.9-0.9H29.6z M31.6,38.3
		L30.8,39l-1.2-1.2v-2.6l0.9-0.9l0.9,0.9V38.3z"/>
	<path id="XMLID_42_" class="st1" d="M35.6,37.5l-1.2,1.2L33.7,38v-2.8l0.9-0.9l0.9,0.9V37.5z M35.6,43.4l-0.9,0.9l-0.9-0.9v-3.3
		l0.7-0.7l1.2,1.2V43.4z M41.7,33l-1.9,1.9h-3.9l-0.9-1l0.9-0.9H41.7z M39.5,45.7l0.9-0.9l-0.9-0.9h-3.6L35,44.7l0.9,0.9H39.5z
		 M40.7,39.1L39.7,40h-2.1l-0.9-0.9l0.9-1h2.1L40.7,39.1z M41.7,43.4l-0.9,0.9l-0.9-0.9v-2.8l1.2-1.2l0.7,0.7V43.4z"/>
	<path id="XMLID_49_" class="st1" d="M43.9,38.3v-4.9l1.9,1.9v2.6L44.6,39L43.9,38.3z M45.8,40.9v2.9l-1.9,1.9v-5.3l0.7-0.7
		L45.8,40.9z M51.6,33l-1.9,1.9h-3.6L44.2,33H51.6z M47,36.2l1-0.9l0.9,0.9V40l-0.9,1l-1-1V36.2z M50,37.8v-2.6l1.9-1.9v4.9L51.2,39
		L50,37.8z M51.9,40.4v5.3L50,43.8v-2.9l1.2-1.2L51.9,40.4z"/>
	<path id="XMLID_61_" class="st1" d="M58.8,38.3v-4.9l1.9,1.9v2.6L59.5,39L58.8,38.3z M60.7,40.9v2.9l-1.9,1.9v-5.3l0.7-0.7
		L60.7,40.9z M66.5,33l-1.9,1.9H61L59.1,33H66.5z M64.8,38.4l0.9,0.9l-0.9,0.9h-4l-0.9-0.9l0.9-0.9H64.8z M64.9,37.8v-2.6l1.9-1.9
		v4.9L66.1,39L64.9,37.8z M66.8,40.4v5.3l-1.9-1.9v-2.9l1.2-1.2L66.8,40.4z"/>
</g>
<polygon id="XMLID_33_" class="st11" points="78.7,35.7 81.9,38.9 78.7,42.1 "/>
</svg>
